<?xml version="1.0" encoding="utf-8"?>
<!-- Generator: Adobe Illustrator 16.0.0, SVG Export Plug-In . SVG Version: 6.00 Build 0)  -->
<!DOCTYPE svg PUBLIC "-//W3C//DTD SVG 1.1//EN" "http://www.w3.org/Graphics/SVG/1.1/DTD/svg11.dtd">
<svg version="1.1" xmlns="http://www.w3.org/2000/svg" xmlns:xlink="http://www.w3.org/1999/xlink" x="0px" y="0px" width="52px"
	 height="52.165px" viewBox="0 0 52 52.165" enable-background="new 0 0 52 52.165" xml:space="preserve">
<g id="Layer_7">
</g>
<g id="Lions">
</g>
<g id="Generic">
</g>
<g id="Layer_3">
</g>
<g id="Layer_4">
</g>
<g id="Layer_5">
</g>
<g id="drops">
	<g>
		<path fill-rule="evenodd" clip-rule="evenodd" fill="#FFFFFF" d="M26.027,48.124c-12.476,0-22.625-10.082-22.625-22.476
			S13.552,3.172,26.027,3.172c12.478,0,22.628,10.083,22.628,22.477S38.505,48.124,26.027,48.124z"/>
		<path fill="#F7941E" d="M26.027,5.172c11.375,0,20.628,9.186,20.628,20.477c0,11.29-9.254,20.476-20.628,20.476
			c-11.373,0-20.625-9.186-20.625-20.476C5.402,14.357,14.654,5.172,26.027,5.172 M26.027,1.172
			c-13.601,0-24.625,10.96-24.625,24.477s11.025,24.476,24.625,24.476c13.601,0,24.628-10.959,24.628-24.476
			S39.628,1.172,26.027,1.172L26.027,1.172z"/>
	</g>
	<path fill-rule="evenodd" clip-rule="evenodd" fill="#F7941E" d="M44.958,35.396c-2.04-0.991-3.337-2.523-3.982-4.666
		c-0.29-0.961-0.77-1.921-1.374-2.734c-2.251-3.033-5.189-4.836-9.199-4.922c-4.17-0.09-5.236-0.992-6.467-4.76
		c-0.293-0.896-0.569-1.814-1.008-2.646c-1.716-3.248-5.462-3.526-7.787-0.705c-0.674,0.82-1.701,1.367-2.566,2.037
		c0,0.238,0,0.474,0,0.711c1.082,1.166,2.119,2.381,3.762,2.865c0.191,0.056,0.398,0.312,0.457,0.518
		c0.396,1.389,0.823,2.778,1.104,4.192c0.207,1.036,0.051,2.152,0.342,3.155c0.267,0.922-0.047,1.42-0.598,2.076
		c-0.396,0.474-0.787,1.328-0.611,1.82c1.252,3.486,5.254,5.489,8.905,4.533c0.688-0.18,1.308-0.603,1.957-0.914
		c-0.015-0.117-0.031-0.235-0.046-0.353c-0.346-0.134-0.691-0.267-1.037-0.402c-0.964-0.382-1.982-0.677-2.875-1.179
		c-0.658-0.369-1.154-1.014-1.723-1.535c0.08-0.077,0.16-0.154,0.24-0.23c4.441,1.252,8.834,1.359,13.201-0.372
		c0.545-0.216,1.576-0.188,1.874,0.15c0.378,0.429,0.514,1.419,0.259,1.937c-0.602,1.222-1.525,2.291-2.266,3.455
		c-1.033,1.629-2.037,3.28-3.002,4.948c-0.141,0.241-0.121,0.781,0.052,0.925c0.196,0.163,0.659,0.085,0.987,0.018
		c0.332-0.068,0.645-0.375,0.958-0.367c2.407,0.064,4.166-0.872,5.243-2.998c0.882-1.734,1.454-1.802,3.037-0.605"/>
</g>
</svg>
