<?xml version="1.0" encoding="utf-8"?>
<!-- Generator: Adobe Illustrator 16.0.0, SVG Export Plug-In . SVG Version: 6.00 Build 0)  -->
<!DOCTYPE svg PUBLIC "-//W3C//DTD SVG 1.1//EN" "http://www.w3.org/Graphics/SVG/1.1/DTD/svg11.dtd">
<svg version="1.1" xmlns="http://www.w3.org/2000/svg" xmlns:xlink="http://www.w3.org/1999/xlink" x="0px" y="0px"
	 width="54.333px" height="52.165px" viewBox="0 0 54.333 52.165" enable-background="new 0 0 54.333 52.165" xml:space="preserve">
<g id="Layer_7">
</g>
<g id="Lions">
</g>
<g id="Generic">
</g>
<g id="Layer_3">
</g>
<g id="Layer_4">
</g>
<g id="Layer_5">
</g>
<g id="drops">
	<g>
		<path fill-rule="evenodd" clip-rule="evenodd" fill="#FFFFFF" d="M27.481,48.165c-12.476,0-22.626-10.082-22.626-22.476
			S15.006,3.213,27.481,3.213c12.478,0,22.628,10.083,22.628,22.477S39.959,48.165,27.481,48.165z"/>
		<path fill="#F7941E" d="M27.481,5.213c11.374,0,20.628,9.186,20.628,20.477c0,11.29-9.254,20.476-20.628,20.476
			c-11.373,0-20.626-9.186-20.626-20.476C6.855,14.398,16.108,5.213,27.481,5.213 M27.481,1.213
			c-13.601,0-24.626,10.96-24.626,24.477s11.025,24.476,24.626,24.476s24.628-10.959,24.628-24.476S41.082,1.213,27.481,1.213
			L27.481,1.213z"/>
	</g>
	<path fill-rule="evenodd" clip-rule="evenodd" fill="#F7941E" d="M34.592,30.895c0.188,0.451,0.383,0.89,0.553,1.34
		c0.166,0.437,0.221,0.896,0.211,1.367c-0.008,0.445-0.033,0.893,0.006,1.334c0.102,1.176,0.068,2.352,0.066,3.527
		c0,0.66-0.068,1.318-0.199,1.967c-0.131,0.647-0.264,1.297-0.412,1.939c-0.143,0.605-0.35,1.184-0.605,1.746
		c-0.076,0.164-0.123,0.352-0.146,0.533c-0.029,0.219-0.145,0.375-0.275,0.528c-0.221,0.261-0.445,0.519-0.646,0.792
		c-0.184,0.248-0.254,0.546-0.238,0.896c0.451-0.08,0.891-0.154,1.33-0.238c0.18-0.033,0.232-0.188,0.268-0.35
		c0.066-0.309,0.133-0.613,0.303-0.883c0.146-0.231,0.334-0.412,0.576-0.521c0.268-0.117,0.381-0.324,0.367-0.613
		c-0.043-0.952,0.16-1.863,0.418-2.767c0.148-0.52,0.281-1.044,0.447-1.557c0.176-0.56,0.387-1.104,0.572-1.661
		c0.168-0.507,0.316-1.025,0.322-1.568c0.006-0.427-0.014-0.855-0.025-1.281c-0.004-0.148-0.018-0.293-0.025-0.439
		c-0.014-0.341-0.029-0.684-0.041-1.025c-0.021-0.556,0.152-1.059,0.402-1.537c0.129-0.244,0.262-0.485,0.395-0.729
		c0.02-0.034,0.041-0.066,0.074-0.118c0.24,0.201,0.479,0.384,0.697,0.593c0.537,0.51,1,1.083,1.363,1.744
		c0.309,0.561,0.508,1.16,0.611,1.793c0.094,0.58,0.145,1.164,0.172,1.754c0.045,0.969-0.072,1.914-0.273,2.856
		c-0.076,0.351-0.127,0.706-0.178,1.062c-0.043,0.294,0.074,0.559,0.195,0.811c0.191,0.397,0.281,0.812,0.273,1.252
		c-0.014,0.643,0.242,1.164,0.654,1.619c0.035,0.039,0.078,0.074,0.121,0.104c0.1,0.07,0.193,0.089,0.295-0.01
		c0.205-0.199,0.43-0.381,0.516-0.68c0.014-0.051,0.027-0.107,0.021-0.158c-0.057-0.361-0.078-0.726-0.348-1.021
		c-0.232-0.252-0.328-0.589-0.34-0.941c-0.01-0.23,0.014-0.465-0.006-0.694c-0.035-0.399-0.104-0.792-0.131-1.191
		c-0.025-0.39-0.031-0.782-0.014-1.173c0.012-0.349,0.051-0.701,0.105-1.045c0.107-0.662,0.234-1.322,0.35-1.984
		c0.045-0.26,0.051-0.527,0.119-0.781c0.08-0.295,0.207-0.577,0.311-0.867c0.121-0.334,0.049-0.622-0.189-0.875
		c-0.377-0.399-0.75-0.799-1.117-1.205c-0.244-0.27-0.467-0.557-0.514-0.946c-0.037-0.306-0.111-0.612-0.111-0.919
		c0-0.252,0.059-0.515,0.139-0.758c0.232-0.715,0.506-1.418,0.652-2.16c0.09-0.447,0.086-0.892-0.018-1.342
		c-0.152-0.666-0.363-1.311-0.643-1.943c0.842-0.086,1.654-0.03,2.438,0.303c-0.094-0.062-0.186-0.125-0.279-0.188
		c0.004-0.016,0.01-0.033,0.012-0.05c1.018,0.089,2.037-0.038,3.074,0.144c-0.119-0.087-0.221-0.162-0.32-0.234
		c0.008-0.019,0.014-0.035,0.02-0.054c0.199,0.026,0.4,0.05,0.6,0.081c0.637,0.094,1.23,0.334,1.824,0.577
		c0.361,0.149,0.734,0.204,1.117,0.112c0.043-0.01,0.086-0.027,0.125-0.058c-0.107-0.005-0.215-0.007-0.324-0.019
		c-0.045-0.003-0.1-0.012-0.133-0.043c-0.029-0.023-0.045-0.086-0.037-0.125c0.006-0.028,0.061-0.069,0.092-0.066
		c0.076,0.006,0.152,0.037,0.229,0.052c0.043,0.008,0.09,0,0.119,0c-0.035-0.055-0.082-0.103-0.098-0.158
		c-0.02-0.076,0.014-0.125,0.104-0.13c0.139-0.006,0.277-0.037,0.416-0.039c0.109-0.002,0.219,0.027,0.307,0.039
		c-0.023-0.023-0.059-0.084-0.111-0.115c-0.115-0.072-0.189-0.164-0.227-0.303c-0.031-0.124-0.143-0.181-0.268-0.156
		c-0.041,0.008-0.084,0.018-0.129,0.024c-0.189,0.038-0.293-0.019-0.385-0.198c-0.068-0.137-0.117-0.303-0.225-0.396
		c-0.156-0.135-0.355-0.225-0.541-0.325c-0.426-0.229-0.902-0.267-1.359-0.37c-0.359-0.081-0.715-0.024-1.072-0.031
		c-0.271-0.002-0.541-0.031-0.809-0.062c-0.27-0.031-0.535-0.11-0.803-0.11c-0.221,0.001-0.459,0.05-0.66,0.144
		c-0.465,0.216-0.955,0.312-1.445,0.422c-0.328,0.072-0.652,0.166-0.979,0.244c-0.297,0.074-0.592,0.15-0.904,0.1
		c-0.191-0.03-0.336-0.142-0.48-0.262c-0.367-0.307-0.734-0.62-1.119-0.902c-0.412-0.3-0.891-0.424-1.391-0.477
		c-0.697-0.076-1.377,0.052-2.061,0.148c-0.723,0.104-1.447,0.225-2.17,0.333c-0.566,0.083-1.129,0.179-1.697,0.235
		c-0.604,0.061-1.213,0.117-1.818,0.109c-0.564-0.008-1.129-0.102-1.691-0.16c-0.086-0.011-0.203,0-0.221-0.125
		c-0.02-0.136,0.066-0.219,0.176-0.274c0.023-0.013,0.047-0.027,0.068-0.041c0-0.014,0.002-0.027,0.002-0.042
		c-0.275-0.029-0.553-0.061-0.828-0.091c-0.002-0.013-0.004-0.024-0.004-0.036c0.199-0.06,0.395-0.119,0.592-0.179
		c-0.004-0.014-0.008-0.026-0.012-0.038c-0.152-0.072-0.303-0.146-0.471-0.229c0.234-0.137,0.354-0.416,0.639-0.451
		c-0.252-0.05-0.512,0.019-0.756-0.057c-0.006-0.02-0.008-0.039-0.014-0.059c0.076-0.029,0.15-0.064,0.227-0.084
		c0.213-0.06,0.43-0.111,0.645-0.169c0.018-0.005,0.033-0.022,0.043-0.03c-0.197,0.014-0.398,0.037-0.602,0.037
		c-0.127,0-0.258-0.025-0.383-0.061c-0.135-0.036-0.158-0.142-0.041-0.225c0.133-0.098,0.287-0.17,0.434-0.25
		c0.053-0.029,0.109-0.054,0.188-0.09c-0.188-0.014-0.352-0.025-0.512-0.037c-0.107-0.008-0.256,0.016-0.283-0.109
		c-0.021-0.088,0.062-0.205,0.09-0.279c-0.08,0.033-0.203,0.086-0.324,0.136c-0.014-0.019-0.025-0.034-0.037-0.054
		c0.043-0.062,0.082-0.127,0.131-0.188c0.17-0.217,0.346-0.434,0.518-0.651c0.021-0.026,0.031-0.062,0.041-0.104
		c-0.299,0.286-0.576,0.603-1.018,0.645c0.445-0.402,0.762-0.908,1.074-1.425c-0.129,0.133-0.256,0.264-0.383,0.398
		c-0.105,0.11-0.203,0.229-0.312,0.333c-0.035,0.034-0.098,0.036-0.16,0.032c0.17-0.393,0.518-0.621,0.73-0.968
		c-0.094,0.089-0.184,0.18-0.279,0.267c-0.096,0.086-0.193,0.17-0.297,0.247c-0.033,0.024-0.082,0.027-0.137,0.022
		c0.129-0.199,0.314-0.361,0.314-0.637c-0.188,0.225-0.486,0.312-0.617,0.623c-0.031-0.066-0.061-0.135-0.096-0.209
		c-0.049,0.027-0.111,0.062-0.178,0.098c-0.016-0.012-0.029-0.023-0.045-0.035c0.029-0.072,0.053-0.148,0.092-0.216
		s0.092-0.126,0.139-0.188c-0.006-0.014-0.012-0.029-0.018-0.043c-0.092,0.025-0.184,0.052-0.273,0.078
		c-0.039,0.008-0.102,0.033-0.111,0.02c-0.031-0.047-0.072-0.113-0.062-0.162c0.018-0.094,0.07-0.18,0.107-0.27
		c-0.01-0.006-0.02-0.014-0.029-0.021c-0.061,0.094-0.121,0.184-0.182,0.275c-0.121-0.126-0.061-0.254,0.018-0.404
		c-0.104,0.03-0.188,0.053-0.27,0.084c-0.064,0.021-0.115,0.053-0.115-0.066c0-0.066-0.068-0.137-0.064-0.201
		c0.01-0.139,0.047-0.273,0.078-0.409c0.004-0.028,0.021-0.057,0.035-0.084c-0.014-0.011-0.023-0.021-0.035-0.032
		c-0.076,0.086-0.174,0.16-0.221,0.26c-0.043,0.098-0.031,0.223-0.047,0.346c-0.184-0.108-0.139-0.299-0.15-0.5
		c-0.084,0.114-0.15,0.209-0.225,0.308c-0.148-0.06-0.186-0.171-0.152-0.568c-0.111,0.093-0.201,0.169-0.299,0.25
		c-0.074-0.302,0.141-0.587-0.035-0.864c0.008,0.282-0.08,0.529-0.221,0.775c-0.219-0.15-0.09-0.383-0.143-0.555
		c-0.047,0.246-0.104,0.338-0.205,0.347c-0.043-0.16-0.088-0.317-0.131-0.474c-0.01,0.003-0.02,0.008-0.027,0.01
		c0.01,0.107,0.029,0.215,0.029,0.324c0,0.047-0.031,0.11-0.066,0.137c-0.023,0.014-0.088-0.023-0.123-0.051
		c-0.096-0.071-0.186-0.152-0.279-0.229c0.008-0.012,0.018-0.022,0.023-0.033c0.008,0.018,0.014,0.037,0.016,0.055
		c0.006,0.033,0.004,0.066,0.006,0.101c-0.035-0.007-0.072-0.006-0.1-0.022c-0.193-0.117-0.336-0.283-0.422-0.527
		c-0.086,0.227-0.117,0.426-0.008,0.645c-0.199-0.038-0.328-0.209-0.35-0.427c-0.021-0.202-0.033-0.408-0.064-0.609
		c-0.041-0.27-0.35-0.581-0.602-0.624c-0.09-0.018-0.107,0.027-0.113,0.115c-0.012,0.207-0.035,0.416-0.062,0.621
		c-0.01,0.057-0.053,0.108-0.092,0.189c-0.141-0.446-0.301-0.84-0.82-0.876c0.08,0.323-0.02,0.614-0.09,0.907
		c-0.045,0.205-0.07,0.404,0.016,0.604c0.027,0.062,0.033,0.133,0.055,0.197c0.037,0.123-0.006,0.217-0.098,0.285
		c-0.865,0.637-1.453,1.498-1.867,2.502c-0.088,0.217-0.215,0.418-0.326,0.623c-0.092,0.171-0.188,0.34-0.285,0.506
		c-0.061,0.1-0.125,0.198-0.197,0.287c-0.176,0.21-0.355,0.416-0.539,0.618c-0.105,0.116-0.213,0.231-0.338,0.326
		c-0.172,0.136-0.27,0.29-0.258,0.528c0.014,0.264-0.016,0.529-0.012,0.794c0.008,0.466,0.293,0.686,0.678,0.835
		c0.299,0.117,0.539,0.068,0.734-0.189c0.256-0.336,0.592-0.479,0.99-0.507c0.285-0.021,0.564-0.076,0.783-0.3
		c0.02,0.061,0.035,0.111,0.049,0.161c0.074-0.021,0.143-0.027,0.197-0.06c0.07-0.041,0.166-0.093,0.184-0.16
		c0.041-0.175,0.164-0.236,0.297-0.295c0.246-0.107,0.492-0.211,0.736-0.32c0.262-0.119,0.539-0.213,0.766-0.41
		c0.09-0.077,0.189-0.057,0.291,0.013c0.432,0.3,0.715,0.722,0.895,1.218c0.24,0.654,0.471,1.314,0.686,1.979
		c0.111,0.344,0.172,0.707,0.277,1.053c0.078,0.25,0.189,0.49,0.301,0.725c0.08,0.17,0.143,0.336,0.08,0.521
		c-0.121,0.365-0.057,0.725,0.014,1.089c0.057,0.302,0.123,0.609,0.123,0.914c-0.002,0.577,0.154,1.085,0.514,1.522
		c0.348,0.426,0.457,0.941,0.461,1.477c0.004,0.463-0.049,0.928-0.08,1.392c-0.023,0.345-0.047,0.69-0.08,1.034
		c-0.062,0.625-0.184,1.24-0.35,1.844c-0.068,0.244-0.104,0.498-0.131,0.75c-0.043,0.382,0.104,0.715,0.277,1.039
		c0.145,0.275,0.285,0.555,0.438,0.825c0.172,0.302,0.137,0.624,0.1,0.944c-0.107,0.928-0.357,1.824-0.57,2.729
		c-0.16,0.675-0.424,1.301-0.746,1.904c-0.191,0.357-0.426,0.676-0.684,0.986c-0.15,0.18-0.219,0.439-0.309,0.67
		c-0.039,0.102-0.055,0.221-0.061,0.334c-0.01,0.17,0.025,0.213,0.193,0.215c0.18,0.002,0.359-0.012,0.539-0.021
		c0.09-0.006,0.182-0.034,0.271-0.028c0.168,0.009,0.273-0.088,0.367-0.205c0.096-0.118,0.205-0.236,0.264-0.373
		c0.045-0.102,0.055-0.248,0.021-0.354c-0.109-0.343,0.012-0.616,0.225-0.849c0.18-0.193,0.371-0.383,0.586-0.525
		c0.271-0.184,0.334-0.438,0.336-0.738c0-0.246-0.012-0.492,0.002-0.738c0.043-0.711,0.086-1.424,0.24-2.123
		c0.008-0.033,0.041-0.061,0.084-0.119c0.051,0.403,0.137,0.748,0.283,1.076c0.15,0.34,0.357,0.637,0.586,0.922
		c0.424,0.527,0.973,0.902,1.486,1.321c0.27,0.22,0.559,0.421,0.857,0.597c0.139,0.082,0.316,0.103,0.48,0.121
		c0.168,0.02,0.266-0.07,0.287-0.246c0.059-0.473-0.129-1.215-0.77-1.436c-0.256-0.089-0.504-0.203-0.744-0.331
		c-0.123-0.065-0.242-0.173-0.324-0.29c-0.477-0.672-0.945-1.35-1.406-2.033c-0.316-0.467-0.32-0.957-0.062-1.457
		c0.154-0.297,0.203-0.624,0.271-0.95c0.098-0.471,0.229-0.937,0.383-1.39c0.311-0.904,0.643-1.803,0.971-2.702
		c0.227-0.62,0.543-1.194,0.877-1.759c0.094-0.158,0.227-0.23,0.402-0.232c0.348,0,0.695,0.008,1.043-0.014
		c1.068-0.064,2.119-0.215,3.113-0.66C34.225,31.094,34.391,30.998,34.592,30.895z"/>
</g>
</svg>
