<?xml version="1.0" encoding="utf-8"?>
<!-- Generator: Adobe Illustrator 16.0.0, SVG Export Plug-In . SVG Version: 6.00 Build 0)  -->
<!DOCTYPE svg PUBLIC "-//W3C//DTD SVG 1.1//EN" "http://www.w3.org/Graphics/SVG/1.1/DTD/svg11.dtd">
<svg version="1.1" xmlns="http://www.w3.org/2000/svg" xmlns:xlink="http://www.w3.org/1999/xlink" x="0px" y="0px"
	 width="53.333px" height="51.913px" viewBox="0 0 53.333 51.913" enable-background="new 0 0 53.333 51.913" xml:space="preserve">
<g id="Layer_7">
</g>
<g id="Lions">
</g>
<g id="Generic">
</g>
<g id="Layer_3">
</g>
<g id="Layer_4">
</g>
<g id="Layer_5">
</g>
<g id="drops">
	<ellipse fill-rule="evenodd" clip-rule="evenodd" fill="#FFFFFF" cx="26.787" cy="26.129" rx="20.71" ry="20.311"/>
	<path fill-rule="evenodd" clip-rule="evenodd" fill="#F7941E" d="M47.96,36.254c-0.995-0.248-1.736-1.045-2.351-2.113
		c-0.592-1.026-0.86-2.227-1.115-3.456c-0.335-1.618-0.687-3.231-1.103-4.812c-0.149-0.569-0.497-1.047-0.764-1.558
		c-0.036-0.072-0.123-0.099-0.187-0.148c-0.027,0.012-0.055,0.023-0.083,0.036c-0.015,0.407-0.065,0.818-0.04,1.221
		c0.105,1.605,0.308,3.19,0.617,4.747c0.175,0.877,0.524,1.57,1.083,2.066c0.05,0.045,0.098,0.098,0.149,0.141
		c0.553,0.446,0.865,1.102,0.934,1.977c0.101,1.27,0.226,2.539,0.297,3.814c0.027,0.474-0.04,0.966-0.108,1.438
		c-0.062,0.432-0.257,0.758-0.571,0.938c-0.152,0.086-0.313,0.196-0.42,0.356c-0.239,0.352-0.529,0.421-0.849,0.384
		c-0.233-0.025-0.466-0.068-0.698-0.115c-0.224-0.047-0.411,0.01-0.62,0.172c-0.204,0.158-0.474,0.203-0.716,0.211
		c-0.53,0.018-1.059-0.016-1.589-0.036c-0.397-0.015-0.797-0.036-1.194-0.062c-0.378-0.026-0.708-0.481-0.739-0.996
		c-0.07-1.187,0.355-1.722,1.246-1.907c0.186-0.039,0.378-0.032,0.565-0.059c0.29-0.037,0.489-0.259,0.619-0.6
		c0.318-0.842,0.382-1.699,0.001-2.527c-0.254-0.557-0.527-1.115-0.849-1.602c-0.877-1.324-1.781-2.619-2.687-3.907
		c-0.427-0.606-0.442-0.587-0.949-0.114c-1.144,1.068-2.352,1.945-3.714,2.392c-0.985,0.321-1.982,0.343-2.979,0.229
		c-0.949-0.108-1.894-0.286-2.84-0.446c-0.133-0.023-0.186,0.03-0.192,0.196c-0.035,0.751-0.095,1.501-0.093,2.252
		c0.002,0.72,0.067,1.44,0.107,2.16c0.023,0.399-0.031,0.769-0.154,1.14c-0.079,0.234-0.11,0.516-0.11,0.777
		c-0.001,0.84-0.533,1.995-1.106,2.285c-0.178,0.088-0.389,0.082-0.583,0.085c-0.272,0.005-0.507,0.097-0.748,0.294
		c-0.169,0.139-0.404,0.203-0.605,0.186c-0.813-0.066-1.627-0.172-2.438-0.281c-0.146-0.02-0.292-0.111-0.426-0.205
		c-0.385-0.27-0.463-0.776-0.233-1.277c0.332-0.723,0.783-1.12,1.419-1.098c0.105,0.004,0.212-0.015,0.315-0.036
		c0.31-0.062,0.374-0.111,0.378-0.544c0.012-1.057,0.21-2.098,0.096-3.172c-0.062-0.582,0.004-1.194,0.05-1.788
		c0.047-0.632-0.044-1.122-0.405-1.606c-0.538-0.722-0.907-1.607-0.913-2.707c-0.003-0.709-0.322-1.241-0.722-1.604
		c-0.402-0.363-0.591-0.822-0.634-1.443c-0.041-0.588-0.273-1-0.661-1.24c-0.75-0.461-1.416-1.104-2.081-1.753
		c-0.11-0.106-0.233-0.192-0.359-0.261c-0.241-0.133-0.459-0.093-0.68,0.131c-0.335,0.344-0.71,0.584-1.136,0.655
		c-0.485,0.079-1.097-0.431-1.228-1.066c-0.035-0.175,0.006-0.386,0.025-0.575c0.038-0.363-0.007-0.504-0.269-0.541
		c-0.345-0.049-0.487-0.351-0.547-0.744c-0.079-0.515-0.125-1.037-0.187-1.557c-0.013-0.111-0.019-0.234-0.058-0.329
		c-0.182-0.437-0.045-0.757,0.202-1.018c0.454-0.481,0.914-0.95,1.377-1.413c0.375-0.374,0.727-0.769,0.979-1.315
		c0.207-0.448,0.547-0.667,0.894-0.862c0.844-0.477,1.729-0.585,2.626-0.482c0.312,0.035,0.617,0.193,0.922,0.314
		c0.274,0.109,0.535,0.111,0.792-0.071c0.541-0.381,1.063-0.306,1.528,0.209c0.481,0.533,0.617,1.259,0.477,2.065
		c-0.042,0.242,0.011,0.361,0.137,0.49c0.445,0.461,0.966,0.652,1.5,0.73c1.118,0.16,2.139,0.68,3.061,1.529
		c0.8,0.74,1.654,0.793,2.565,0.598c0.59-0.125,1.188-0.192,1.784-0.232c1.307-0.086,2.617-0.125,3.926-0.205
		c0.975-0.062,1.952-0.267,2.922-0.225c2.27,0.1,4.308,1.035,5.887,3.407c0.683,1.024,1.178,2.215,1.491,3.516
		c0.325,1.359,0.565,2.758,0.826,4.146c0.212,1.121,0.412,2.247,0.858,3.248c0.139,0.314,0.312,0.612,0.512,0.861
		c0.458,0.575,1.097,0.602,1.569,0.055"/>
	<g>
		<path fill="#F7941E" d="M26.713,5.172c11.375,0,20.628,9.186,20.628,20.477c0,11.29-9.254,20.476-20.628,20.476
			c-11.373,0-20.625-9.186-20.625-20.476C6.088,14.357,15.34,5.172,26.713,5.172 M26.713,1.172
			c-13.601,0-24.625,10.96-24.625,24.477s11.025,24.476,24.625,24.476c13.601,0,24.628-10.959,24.628-24.476
			S40.314,1.172,26.713,1.172L26.713,1.172z"/>
	</g>
</g>
</svg>
