<?xml version="1.0" encoding="utf-8"?>
<!-- Generator: Adobe Illustrator 16.0.0, SVG Export Plug-In . SVG Version: 6.00 Build 0)  -->
<!DOCTYPE svg PUBLIC "-//W3C//DTD SVG 1.1//EN" "http://www.w3.org/Graphics/SVG/1.1/DTD/svg11.dtd">
<svg version="1.1" xmlns="http://www.w3.org/2000/svg" xmlns:xlink="http://www.w3.org/1999/xlink" x="0px" y="0px"
	 width="52.667px" height="52.165px" viewBox="0 0 52.667 52.165" enable-background="new 0 0 52.667 52.165" xml:space="preserve">
<g id="Layer_7">
</g>
<g id="Lions">
</g>
<g id="Generic">
</g>
<g id="Layer_3">
</g>
<g id="Layer_4">
</g>
<g id="Layer_5">
</g>
<g id="drops">
	<ellipse fill-rule="evenodd" clip-rule="evenodd" fill="#FFFFFF" cx="26.325" cy="25.639" rx="20.802" ry="20.816"/>
	<path fill-rule="evenodd" clip-rule="evenodd" fill="#F7941E" d="M29.037,24.843c-0.574,0.562-1.067,1.447-1.741,1.612
		c-1.014,0.25-2.586-1.523-2.312-2.682c0.202-0.854,0.892-1.863,1.652-2.239C27.345,21.182,28.7,23.243,29.037,24.843z"/>
	<path fill-rule="evenodd" clip-rule="evenodd" fill="#F7941E" d="M21.704,20.834c0.411,1.881-0.242,3.148-1.884,3.861
		c-0.442,0.191-1.112,0.268-1.495,0.064c-0.261-0.139-0.336-0.879-0.264-1.312C18.235,22.41,20.481,20.813,21.704,20.834z"/>
	<path fill-rule="evenodd" clip-rule="evenodd" fill="#F7941E" d="M20.435,28.262c1.469,0.07,2.73,0.131,4.012,0.191
		C23.429,30.15,21.944,30.137,20.435,28.262z"/>
	<path fill-rule="evenodd" clip-rule="evenodd" fill="#F7941E" d="M31.503,40.112c-3.267,3.017-7.086,2.957-11.609,0.577
		c-0.369-0.193-0.845-0.191-1.272-0.271c-1.466-0.273-2.953-0.472-4.396-0.834c-1.366-0.343-1.045-1.527-0.461-2.057
		c1.268-1.152,0.956-2.407,0.564-3.639c-0.968-3.037-0.339-6.021,0.108-9.021c0.203-1.36,0.106-2.875,0.702-4.041
		c0.998-1.957,0.501-3.765,0.314-5.716c-0.202-2.102,2.017-3.419,4.098-2.798c0.496,0.148,1.151-0.102,1.7-0.271
		c0.868-0.271,1.725-0.942,2.555-0.897c3.138,0.17,6.133,0.662,8.634,2.999c1.097,1.025,2.559,1.557,2.43,3.256
		c3.501,1.774,5.637,4.861,8.154,7.541c0.341,0.362,0.641,0.766,0.938,1.166c0.877,1.178,2.404,2.325,2.478,3.555
		c0.149,2.479-0.484,5.004-0.826,7.508c-0.034,0.248-0.226,0.591-0.438,0.684c-2.428,1.077-4.791,2.508-7.344,3.03
		C35.963,41.266,33.84,40.443,31.503,40.112z M31.834,14.276c-2.521-2.017-5.283-2.595-8.159-2.729
		c-0.586-0.027-1.297,0.347-1.776,0.742c-0.737,0.608-1.225,1.528-1.993,2.081c-3.54,2.55-4.611,6.242-4.672,10.229
		c-0.035,2.289,3.286,5.382,5.85,6.004c-0.454-0.557-0.873-1.071-1.292-1.583c0.084-0.231,0.168-0.462,0.253-0.692
		c1.436,3.35,3.659,2.352,5.874,1.691c-0.455,0.302-0.91,0.604-1.628,1.08c3.463,0.121,5.51-1.796,7.224-3.871
		c1.772-2.146,2.224-4.943,3.174-7.889c-1.333,0.744-2.448,1.599-3.128,0.27c-0.754-1.471-1.088-3.151-1.642-4.848
		C30.498,14.615,31.025,14.482,31.834,14.276z M45.774,34.242c0.638-2.656,0.932-5.341-1.79-7.436
		c-0.645-0.496-1.065-1.268-1.635-1.871c-1.756-1.863-3.534-3.706-5.305-5.557c2.014,6.625-0.244,12.461-2.628,18.363
		c0.979,0.367,1.483-0.436,1.62-1.328c0.306-1.994,1.727-2.764,3.383-3.391c0.515-0.194,0.958-0.629,1.48-0.738
		c0.805-0.168,1.798-0.451,2.443-0.142C44.281,32.592,44.98,33.523,45.774,34.242z M25.522,31.973
		c-0.182-0.141-0.363-0.279-0.545-0.419c-0.418,0.155-1.168,0.259-1.203,0.472c-0.258,1.62-0.375,3.26-0.536,4.895
		c0.177,0.047,0.354,0.094,0.532,0.141C24.354,35.365,24.938,33.67,25.522,31.973z"/>
	<g>
		<path fill="#F7941E" d="M26.324,5.162c11.375,0,20.628,9.186,20.628,20.477c0,11.29-9.254,20.476-20.628,20.476
			c-11.373,0-20.625-9.186-20.625-20.476C5.698,14.348,14.951,5.162,26.324,5.162 M26.324,1.162
			c-13.601,0-24.625,10.96-24.625,24.477s11.025,24.476,24.625,24.476c13.601,0,24.628-10.959,24.628-24.476
			S39.925,1.162,26.324,1.162L26.324,1.162z"/>
	</g>
</g>
</svg>
