<?xml version="1.0" encoding="utf-8"?>
<!-- Generator: Adobe Illustrator 16.0.0, SVG Export Plug-In . SVG Version: 6.00 Build 0)  -->
<!DOCTYPE svg PUBLIC "-//W3C//DTD SVG 1.1//EN" "http://www.w3.org/Graphics/SVG/1.1/DTD/svg11.dtd">
<svg version="1.1" xmlns="http://www.w3.org/2000/svg" xmlns:xlink="http://www.w3.org/1999/xlink" x="0px" y="0px" width="53px"
	 height="52.165px" viewBox="0 0 53 52.165" enable-background="new 0 0 53 52.165" xml:space="preserve">
<g id="Layer_7">
</g>
<g id="Lions">
</g>
<g id="Generic">
</g>
<g id="Layer_3">
</g>
<g id="Layer_4">
</g>
<g id="Layer_5">
</g>
<g id="drops">
	<g>
		<path fill-rule="evenodd" clip-rule="evenodd" fill="#FFFFFF" d="M26.667,47.913c-12.476,0-22.626-10.082-22.626-22.476
			S14.191,2.961,26.667,2.961c12.478,0,22.628,10.083,22.628,22.477S39.145,47.913,26.667,47.913z"/>
		<path fill="#F7941E" d="M26.667,4.961c11.374,0,20.628,9.186,20.628,20.477c0,11.29-9.254,20.476-20.628,20.476
			c-11.373,0-20.626-9.186-20.626-20.476C6.041,14.146,15.294,4.961,26.667,4.961 M26.667,0.961
			c-13.601,0-24.626,10.96-24.626,24.477s11.025,24.476,24.626,24.476s24.628-10.959,24.628-24.476S40.268,0.961,26.667,0.961
			L26.667,0.961z"/>
	</g>
	<path fill-rule="evenodd" clip-rule="evenodd" fill="#F7941E" d="M18.644,30.061c0.307,0.037,0.309,0.014,0.301-0.311
		c-0.002-0.086-0.086-0.281,0.098-0.316c0.025-0.006,0.051-0.049,0.033-0.083c-0.082-0.153,0.021-0.184,0.107-0.222
		c-0.012-0.024-0.014-0.043-0.023-0.053c-0.064-0.074-0.201-0.088-0.195-0.209c0.008-0.143,0.15-0.125,0.232-0.18
		c0.162-0.109,0.166-0.323,0.178-0.5c0.006-0.094,0.012-0.147,0.07-0.203c0.16-0.149,0.26-0.322,0.137-0.572
		c-0.037-0.08-0.02-0.148,0.057-0.184c0.156-0.071,0.209-0.232,0.223-0.406c0.016-0.216,0.135-0.422,0.045-0.648
		c0.27-0.225,0.057-0.553,0.104-0.83c0.049-0.287,0.043-0.666-0.152-0.955c-0.061-0.09-0.1-0.025-0.146-0.014
		c-0.09,0.022-0.174,0.05-0.162-0.123c0.004-0.047-0.01-0.102-0.066-0.111c-0.162-0.031-0.172-0.041-0.199-0.184
		c-0.043,0.033-0.082,0.064-0.125,0.094c-0.086,0.062-0.166,0.105-0.145-0.09c0.006-0.047,0.02-0.133-0.041-0.112
		c-0.277,0.099-0.428-0.22-0.658-0.279c-0.094-0.024-0.176-0.136-0.291-0.135c-0.025,0-0.07-0.017-0.076-0.038
		c-0.088-0.323-0.35-0.314-0.553-0.404c-0.5-0.224-1.008-0.431-1.512-0.643c-0.096-0.039-0.189-0.086-0.291-0.079
		c-0.518,0.034-1.027-0.054-1.537-0.149c-0.572-0.106-1.152-0.093-1.729-0.146c-0.336-0.031-0.643-0.156-0.9-0.427
		c-0.111-0.118-0.221-0.16-0.332-0.005c-0.057,0.077-0.111,0.061-0.168,0.01c-0.057-0.053-0.129-0.094-0.166-0.161
		c-0.244-0.461-0.299-0.977-0.271-1.507c0.008-0.127,0.098-0.217,0.209-0.268c0.42-0.193,0.83-0.417,1.254-0.594
		c0.543-0.223,0.963-0.644,1.311-1.157c0.336-0.493,0.746-0.815,1.242-0.999c0.84-0.309,1.686-0.587,2.58-0.549
		c0.287,0.012,0.352-0.072,0.422-0.415c0.105-0.495,0.17-1.005,0.477-1.408c0.357-0.47,0.793-0.628,1.184-0.397
		c0.352,0.207,0.506,0.566,0.461,1.109c-0.016,0.191-0.02,0.359,0.086,0.529c0.092,0.143,0.104,0.336,0.105,0.516
		c0.004,0.193,0.084,0.275,0.236,0.289c0.455,0.039,0.91,0.088,1.367,0.124c0.676,0.054,1.346,0.192,2.02,0.283
		c0.99,0.136,1.984,0.093,2.975,0.04c1.979-0.108,3.957-0.162,5.938-0.104c1.207,0.036,2.414,0.062,3.611,0.267
		c1.74,0.3,3.373,0.97,4.869,2.077c0.564,0.418,0.99,1.03,1.418,1.626c0.623,0.86,1.188,1.775,1.74,2.701
		c0.102,0.168,0.146,0.344,0.117,0.554c-0.035,0.263-0.08,0.532,0.145,0.725c0.041,0.036,0.043,0.084,0,0.125
		c-0.195,0.18-0.08,0.288,0.061,0.396c0.025,0.021,0.043,0.058,0.064,0.084c-0.037,0.078-0.098,0.055-0.139,0.082
		c-0.094,0.062-0.15,0.137-0.061,0.262c0.037,0.052,0.064,0.114,0.104,0.163c0.127,0.158,0.139,0.284-0.051,0.386
		c-0.062,0.034-0.111,0.107-0.16,0.169c-0.037,0.045-0.051,0.081,0.008,0.142c0.254,0.271,0.25,0.275-0.004,0.523
		c-0.016,0.014-0.021,0.041-0.033,0.065c0.104,0.081,0.207,0.155,0.303,0.238c0.086,0.072,0.102,0.147-0.016,0.198
		c-0.082,0.035-0.156,0.084-0.223,0.151c-0.09,0.09-0.121,0.16,0.016,0.235c0.082,0.046,0.184,0.119,0.166,0.24
		c-0.023,0.151-0.152,0.079-0.236,0.103c-0.025,0.008-0.053,0.011-0.109,0.022c0.172,0.202,0.4,0.27,0.531,0.483
		c-0.027,0.121-0.139,0.03-0.186,0.138c0.078,0.083,0.168,0.174,0.254,0.268c0.029,0.033,0.07,0.07,0.057,0.128
		c-0.014,0.066-0.068,0.044-0.107,0.054c-0.121,0.031-0.293-0.034-0.342,0.137c-0.049,0.17,0.098,0.291,0.188,0.404
		c0.574,0.714,1.199,1.369,1.738,2.125c0.371,0.52,0.76,1.023,1.113,1.557c0.412,0.615,0.609,1.352,0.75,2.107
		c0.09,0.482,0.188,0.973,0.105,1.47c-0.148,0.889-0.41,1.203-1.078,1.327c-0.145,0.025-0.254,0.094-0.344,0.23
		c-0.088,0.135-0.182,0.151-0.277-0.004c-0.166-0.271-0.445-0.34-0.688-0.156c-0.17,0.125-0.328,0.111-0.482-0.004
		c-0.236-0.174-0.25-0.418-0.029-0.611c0.273-0.236,0.488-0.521,0.635-0.884c0.131-0.323,0.105-0.608-0.105-0.868
		c-0.242-0.298-0.543-0.477-0.885-0.523c-0.182-0.024-0.33-0.096-0.465-0.229c-0.41-0.404-0.859-0.73-1.348-0.984
		c-0.531-0.275-0.965-0.725-1.371-1.211c-0.162-0.193-0.324-0.389-0.486-0.58c-0.098-0.113-0.211-0.205-0.338-0.266
		c-0.311-0.146-0.498-0.021-0.549,0.373c-0.023,0.178-0.045,0.358-0.037,0.535c0.012,0.311-0.035,0.594-0.182,0.851
		c-0.057,0.101-0.053,0.2-0.018,0.315c0.178,0.58,0.191,1.188,0.189,1.795c0,0.035-0.006,0.069-0.01,0.102
		c-0.119,0.693-0.963,1.66-1.541,1.77c-0.102,0.019-0.197,0.005-0.297-0.012c-0.281-0.051-0.549-0.012-0.816,0.125
		c-0.24,0.123-0.486,0.186-0.729-0.035c-0.135-0.121-0.287-0.037-0.404,0.053c-0.287,0.219-0.551,0.146-0.789-0.088
		c-0.201-0.194-0.414-0.235-0.662-0.188c-0.334,0.064-0.637,0.027-0.912-0.28c-0.197-0.22-0.148-0.499-0.215-0.745
		c-0.035-0.119,0.129-0.218,0.234-0.26c0.402-0.162,0.816-0.238,1.242-0.182c0.121,0.016,0.246,0.026,0.357,0.076
		c0.367,0.161,0.693,0,1.008-0.182c0.277-0.158,0.357-0.389,0.271-0.74c-0.268-1.082-0.506-2.171-0.787-3.248
		c-0.191-0.738-0.445-1.467-0.484-2.252c-0.016-0.342-0.07-0.655-0.254-0.964c0,0.054,0,0.075,0,0.098
		c-0.004,0.103,0.119,0.231,0.012,0.292c-0.072,0.042-0.143-0.109-0.207-0.187c-0.088-0.106-0.174-0.217-0.287-0.302
		c0.037,0.162,0.084,0.32,0.113,0.484c0.016,0.093,0.014,0.148-0.111,0.113c-0.25-0.069-0.416-0.277-0.617-0.43
		c-0.07-0.051-0.123-0.141-0.24-0.158c0.102,0.196,0.193,0.371,0.287,0.547c-0.334-0.154-0.615-0.418-0.977-0.441
		c-0.041,0.102,0.092,0.193,0.01,0.266c-0.07,0.061-0.143-0.039-0.215-0.055c-0.264-0.061-0.488-0.223-0.736-0.395
		c0.059,0.218-0.025,0.202-0.137,0.148c-0.148-0.074-0.297-0.146-0.445-0.217c-0.057,0.097,0.035,0.159-0.004,0.26
		c-0.166-0.047-0.285-0.197-0.432-0.291c-0.176-0.109-0.209-0.086-0.207,0.149c0.002,0.081,0.041,0.183-0.047,0.226
		c-0.078,0.04-0.135-0.04-0.186-0.095c-0.07-0.075-0.129-0.159-0.193-0.239c-0.094-0.119-0.162-0.315-0.346-0.123
		c-0.051,0.054-0.148,0.02-0.221-0.036c-0.197-0.149-0.41-0.116-0.623-0.069c-0.129,0.027-0.146,0.109-0.094,0.238
		c0.055,0.13,0.104,0.264,0.154,0.395c0.18,0.459,0.316,0.932,0.336,1.445c0.016,0.342,0.07,0.676,0.162,1.004
		c0.09,0.321,0.092,0.656,0.039,0.988c-0.176,1.158-0.328,2.322-0.539,3.474c-0.084,0.457-0.279,0.796-0.6,1.046
		c-0.336,0.262-0.688,0.491-0.963,0.85c-0.129,0.169-0.299,0.162-0.451,0.044c-0.201-0.158-0.369-0.127-0.535,0.07
		c-0.154,0.187-0.27,0.185-0.502,0.047c-0.232-0.14-0.48-0.349-0.771-0.356c-0.094-0.004-0.215,0.015-0.262-0.074
		c-0.102-0.211-0.107-0.485-0.326-0.623c-0.041-0.025,0.027-0.172,0.062-0.256c0.18-0.422,0.494-0.654,0.844-0.826
		c0.242-0.12,0.496-0.215,0.744-0.319c0.375-0.157,0.422-0.265,0.289-0.7c-0.217-0.707-0.48-1.389-0.791-2.045
		c-0.209-0.447-0.412-0.898-0.621-1.346c-0.078-0.167-0.168-0.312-0.35-0.341c-0.156-0.024-0.227-0.112-0.088-0.284
		c0.131-0.16,0.006-0.234-0.086-0.28c-0.145-0.069-0.244-0.13-0.133-0.337c0.045-0.081,0.002-0.165-0.045-0.234
		c-0.047-0.066-0.092-0.133-0.098-0.223c-0.008-0.117-0.059-0.167-0.154-0.16c-0.15,0.014-0.246-0.09-0.301-0.238
		c-0.051-0.127-0.123-0.205-0.232-0.241c-0.125-0.04-0.203-0.108-0.277-0.267c-0.066-0.142-0.234-0.227-0.32-0.396
		c-0.037-0.073-0.088,0.021-0.1,0.071c-0.139,0.603-0.469,1.153-0.488,1.765c-0.014,0.443-0.115,0.707-0.395,0.934
		c-0.043,0.035-0.078,0.105-0.092,0.168c-0.154,0.668-0.521,1.168-0.9,1.656c-0.275,0.355-0.617,0.635-0.846,1.049
		c-0.07,0.129-0.139,0.257-0.188,0.401c-0.076,0.235-0.215,0.354-0.43,0.33c-0.166-0.019-0.277,0.049-0.367,0.23
		c-0.117,0.233-0.311,0.378-0.527,0.457c-0.092,0.033-0.182,0.073-0.232,0.169c-0.189,0.354-0.494,0.448-0.805,0.514
		c-0.146,0.031-0.266,0.102-0.326,0.256c-0.139,0.356-0.406,0.434-0.678,0.404c-0.236-0.025-0.438,0.029-0.643,0.135
		c-0.242,0.125-0.463,0.197-0.721-0.016c-0.199-0.168-0.473-0.174-0.707-0.082c-0.445,0.176-0.809,0.024-1.137-0.33
		c-0.006-0.007-0.018-0.008-0.02-0.014c-0.084-0.267-0.279-0.433-0.406-0.656c-0.064-0.113,0.057-0.268,0.162-0.35
		c0.184-0.146,0.402-0.167,0.613-0.199c0.078-0.012,0.166,0.005,0.227-0.058c0.238-0.237,0.508-0.181,0.777-0.142
		c0.844,0.121,1.734-0.503,1.975-1.471c0.184-0.732,0.463-1.389,0.807-2.023c0.277-0.512,0.441-1.086,0.578-1.674
		C18.866,30.256,18.798,30.191,18.644,30.061z"/>
</g>
</svg>
