<?xml version="1.0" encoding="utf-8"?>
<!-- Generator: Adobe Illustrator 16.0.0, SVG Export Plug-In . SVG Version: 6.00 Build 0)  -->
<!DOCTYPE svg PUBLIC "-//W3C//DTD SVG 1.1//EN" "http://www.w3.org/Graphics/SVG/1.1/DTD/svg11.dtd">
<svg version="1.1" xmlns="http://www.w3.org/2000/svg" xmlns:xlink="http://www.w3.org/1999/xlink" x="0px" y="0px"
	 width="53.667px" height="52.165px" viewBox="0 0 53.667 52.165" enable-background="new 0 0 53.667 52.165" xml:space="preserve">
<g id="Layer_7">
</g>
<g id="Lions">
</g>
<g id="Generic">
</g>
<g id="Layer_3">
</g>
<g id="Layer_4">
</g>
<g id="Layer_5">
</g>
<g id="drops">
	<g>
		<path fill-rule="evenodd" clip-rule="evenodd" fill="#FFFFFF" d="M27.539,47.952c-12.476,0-22.626-10.082-22.626-22.476
			S15.063,3,27.539,3c12.478,0,22.628,10.083,22.628,22.477S40.017,47.952,27.539,47.952z"/>
		<path fill="#F7941E" d="M27.539,5c11.374,0,20.628,9.186,20.628,20.477c0,11.29-9.254,20.476-20.628,20.476
			c-11.373,0-20.626-9.186-20.626-20.476C6.913,14.186,16.166,5,27.539,5 M27.539,1C13.938,1,2.913,11.96,2.913,25.477
			s11.025,24.476,24.626,24.476s24.628-10.959,24.628-24.476S41.14,1,27.539,1L27.539,1z"/>
	</g>
	<path fill-rule="evenodd" clip-rule="evenodd" fill="#F7941E" d="M16.047,33.086c-0.449,0.23-0.902,0.446-1.347,0.694
		c-0.202,0.114-0.388,0.288-0.686,0.288c0.223-0.431,0.444-0.86,0.666-1.288c-0.016-0.046-0.032-0.09-0.048-0.133
		c-0.36,0.261-0.721,0.523-1.166,0.849c0.021-0.309,0.035-0.541,0.056-0.851c-0.143-0.067-0.334-0.157-0.698-0.33
		c1.942-0.877,3.373-2.49,4.936-3.811c-0.436-0.27-0.711,0.27-1.134,0.352c-0.514-0.143-1.088-0.365-1.671-0.437
		c-0.294-0.036-0.618,0.164-0.905,0.337c-0.513,0.308-1.007,0.676-1.62,1.095c0.272-1.074,1.309-1.043,1.273-2.204
		c1.323-1.099,2.807-1.442,4.34-2.028c-0.255-1.009-0.761-1.563-1.391-1.851c-0.612-0.281-1.261-0.409-2.023-0.646
		c0.247-0.177,0.398-0.358,0.563-0.39c0.928-0.172,1.838-0.102,2.694,0.506c0.229,0.163,0.471,0.293,0.706,0.437
		c0.079,0.053,0.158,0.104,0.236,0.153l-0.019,0.029c-0.043-0.103-0.084-0.207-0.126-0.311c-0.558-1.087-1.402-1.643-2.185-2.313
		c-0.303-0.261-0.596-0.538-1.033-0.937c1.097-0.002,2.021,0.65,5.081,3.469c-0.066-0.409-0.079-0.702-0.161-0.95
		c-0.551-1.667-1.352-3.087-2.268-4.382c-0.732-1.035-1.512-1.989-2.452-2.647c-0.102-0.071-0.214-0.113-0.245-0.297
		c1.038-0.109,1.746,0.72,2.479,1.432c0.732,0.711,1.438,1.478,2.217,2.285c0.106-0.758-0.302-1.103-0.53-1.594
		c0.349-0.167,0.529,0.075,0.721,0.311c0.668,0.821,1.061,1.897,1.427,3.002c0.217,0.654,0.448,1.3,0.674,1.951
		c0.254,0.048,0.45,0.086,0.693,0.131c0.057-0.345,0.113-0.687,0.181-1.099c0.152-0.133,0.34-0.293,0.542-0.467
		c-0.188-1.787-0.745-3.324-1.41-4.8c-0.124-0.275-0.418-0.536-0.05-0.969c0.758,0.938,1.367,2.037,1.793,3.313
		c0.287,0.861,0.626,1.597,1.237,2.096c0.392,0.319,0.704,0.824,1.102,1.307c0.856-0.827,1.951-1.101,2.7-2.266
		c-0.171-1.045-0.902-1.418-1.297-2.187c0.061-0.1,0.116-0.19,0.201-0.328c0.549,0.565,1.096,1.128,1.69,1.741
		c0.396-0.551,0.771-1.042,1.121-1.566c0.35-0.52,0.677-1.073,1.05-1.671c0.047,0.993-0.118,1.473-1.496,4.471
		c0.219,2.42,0.436,4.811,0.661,7.296c0.509-0.313,0.661-1.03,1.065-1.391c0-0.378-0.013-0.699,0.004-1.017
		c0.013-0.265,0.06-0.526,0.093-0.797c0.571-0.003,0.378,0.895,0.845,1.108c0.535-1.37,1.172-2.712,1.596-4.174
		c0.421-1.451,0.301-2.934-0.551-4.143c-0.03-0.042-0.016-0.147-0.032-0.348c0.149,0.077,0.29,0.094,0.371,0.199
		c1.163,1.533,1.222,3.466,0.998,5.499c-0.083,0.748-0.151,1.501-0.227,2.253c-0.029,0.027-0.06,0.053-0.059,0.052
		c-0.001,0.003,0.021-0.037,0.042-0.075c0.678-1.213,0.944-2.65,1.079-4.129c0.075-0.817,0.014-1.659,0.014-2.552
		c0.292-0.112,0.356,0.271,0.391,0.544c0.144,1.149,0.261,2.307,0.375,3.463c0.05,0.497-0.065,1.008,0.279,1.455
		c0.119,0.155-0.013,0.741-0.076,1.113c-0.078,0.457-0.206,0.898-0.312,1.346c-0.06,0.083-0.119,0.167-0.178,0.25l-0.057,0.039
		l0.036-0.067c0.061-0.081,0.121-0.163,0.182-0.243c0.648-0.769,1.082-1.749,1.452-2.803c0.299-0.85,0.391-1.726,0.328-2.729
		c0.085,0.117,0.205,0.213,0.249,0.354c0.237,0.771,0.247,1.575,0.065,2.362c-0.246,1.068-0.531,2.118-0.798,3.171
		c0.408,0.115,0.408,0.115,1.176-0.159c0.076-0.423,0.164-0.907,0.252-1.395c0.183,0.307,0.183,0.307,0.221,1.932l-0.041,0.067
		l0.046-0.061c0.347-0.1,0.693-0.198,1.205-0.345c-0.472,1.123-1.255,1.521-1.721,2.579c0.71-0.088,1.301-0.188,1.893-0.227
		c0.574-0.037,1.15-0.008,1.717-0.008c0.036,0.348,0.068,0.642,0.1,0.938c-0.026,0.041-0.058,0.133-0.1,0.146
		c-0.959,0.26-1.932,0.446-2.876,0.784c-0.741,0.266-1.505,0.549-2.146,1.339c0.574,0.718,1.082,1.496,1.688,2.07
		c0.608,0.574,1.314,0.947,2.039,1.45c-0.138,0.349-0.252,0.641-0.394,1.003c-0.485-0.485-0.921-0.959-1.504-0.891
		c0.002,0.554,0.77,0.397,0.497,1.247c-0.144-0.056-0.303-0.084-0.44-0.175c-0.627-0.408-1.257-0.808-1.866-1.26
		c-0.411-0.304-0.779-0.243-1.135,0.104c-0.377,0.369-0.745,0.758-1.098,1.173c-0.358,0.422-0.729,0.77-1.204,0.896
		c-0.968,0.258-1.455,1.183-1.27,2.508c0.074,0.53,0.267,1.069,0.501,1.502c0.347,0.641,0.787,1.178,1.171,1.781
		c0.325,0.512,0.653,1.026,0.928,1.591c0.288,0.594,0.144,1.075-0.347,1.296c-0.161,0.072-0.342,0.091-0.512,0.084
		c-0.662-0.03-1.324-0.105-1.985-0.115c-0.921-0.014-1.846-0.044-2.763,0.045c-1.522,0.146-3.041,0.36-4.559,0.582
		c-1.175,0.171-2.344,0.406-3.518,0.594c-0.797,0.128-1.598,0.225-2.396,0.33c-0.648,0.086-1.178-0.249-1.598-0.868
		c-0.315-1.121,0.227-1.974,0.378-2.928c0.086-0.548,0.31-1.077,0.315-1.618c0.017-1.656,0.63-2.88,1.315-4.106
		c0.385-0.69,0.727-1.457,0.976-2.258c0.205-0.662,0.188-1.422-0.038-2.157c-0.736-0.271-1.083-1.214-1.54-1.927
		c-0.734,0.224-0.451,1.184-0.691,1.857c-0.163-0.296-0.277-0.501-0.396-0.716c-0.545,0.458-0.777,1.392-1.495,1.844
		c0.162-0.956,0.854-1.44,0.668-2.436c-0.893,0.334-1.586,1.095-2.312,1.763c-0.032-0.069-0.064-0.138-0.097-0.206
		c0.229-0.401,0.457-0.803,0.686-1.203L16.047,33.086z M27.814,23.395c0.465,0.927,0.865,1.725,1.381,2.753
		c0.13-1.684,0.236-3.069,0.351-4.548C28.928,22.24,28.383,22.806,27.814,23.395z"/>
</g>
</svg>
