<?xml version="1.0" encoding="utf-8"?>
<!-- Generator: Adobe Illustrator 16.0.0, SVG Export Plug-In . SVG Version: 6.00 Build 0)  -->
<!DOCTYPE svg PUBLIC "-//W3C//DTD SVG 1.1//EN" "http://www.w3.org/Graphics/SVG/1.1/DTD/svg11.dtd">
<svg version="1.1" xmlns="http://www.w3.org/2000/svg" xmlns:xlink="http://www.w3.org/1999/xlink" x="0px" y="0px" width="53px"
	 height="52.165px" viewBox="0 0 53 52.165" enable-background="new 0 0 53 52.165" xml:space="preserve">
<g id="Layer_7">
</g>
<g id="Lions">
</g>
<g id="Generic">
</g>
<g id="Layer_3">
</g>
<g id="Layer_4">
</g>
<g id="Layer_5">
</g>
<g id="drops">
	<g>
		<path fill-rule="evenodd" clip-rule="evenodd" fill="#FFFFFF" d="M26.866,48.165c-12.476,0-22.626-10.082-22.626-22.476
			S14.391,3.213,26.866,3.213c12.478,0,22.628,10.083,22.628,22.477S39.344,48.165,26.866,48.165z"/>
		<path fill="#F7941E" d="M26.866,5.213c11.374,0,20.628,9.186,20.628,20.477c0,11.29-9.254,20.476-20.628,20.476
			c-11.373,0-20.626-9.186-20.626-20.476C6.24,14.398,15.493,5.213,26.866,5.213 M26.866,1.213
			c-13.601,0-24.626,10.96-24.626,24.477s11.025,24.476,24.626,24.476s24.628-10.959,24.628-24.476S40.467,1.213,26.866,1.213
			L26.866,1.213z"/>
	</g>
	<path fill-rule="evenodd" clip-rule="evenodd" fill="#F7941E" d="M50.267,30.057c-1.119,3.423-3.494,4.658-5.994,5.699
		c-1.305,0.545-2.623,1.064-3.891,1.734c-2.717,1.438-3.152,2.374-2.992,5.973c-1.635-0.771-2.021-3.403-0.576-4.982
		c1.42-1.553,3.025-2.832,4.584-4.168c1.379-1.186,2.826-2.251,4.199-3.456c0.283-0.249,0.602-1.08,0.49-1.3
		c-0.326-0.641-0.803-1.423-1.322-1.576c-0.873-0.258-1.822-0.07-2.484-0.07c-0.125,1.064-0.051,2.104-0.385,2.83
		c-0.377,0.814-1.125,1.342-1.791,2.088c-0.07-0.264-0.145-0.552-0.262-1.002c-0.463,0.396-0.898,0.77-1.332,1.145
		c-1.334-2.221-1.334-2.221-0.301-3.126c-0.188-0.384-0.377-0.769-0.371-0.755c-3.158,0.34-6.084,0.684-9.012,0.959
		c-0.852,0.079-1.41,0.283-1.994,1.352c-0.732,1.34-1.885,2.404-3.32,2.58c-0.199,0.025-0.381,0.279-0.711,0.535
		c0.049-0.488,0.076-0.792,0.111-1.173c-0.404,0-0.801,0-1.197,0c0.162-1.22,0.447-2.122,1.596-1.948
		c0.186,0.028,0.432-0.581,0.803-1.119c-3.049-0.632-5.756-1.572-8.643-1.012c-1.609,0.312-3.289,0.115-4.934,0.021
		c-1.26-0.069-1.494-0.773-1.059-2.918c0.188,0.403,0.338,0.727,0.547,1.179c0.158-0.498,0.277-0.873,0.396-1.249
		c0.031,0.175,0.061,0.352,0.09,0.527c0.643,0,1.287,0,1.928,0c1.094,0,2.186,0,3.277,0c-0.012-0.188-0.021-0.375-0.033-0.562
		c-1.109-0.011-2.289-0.875-3.27,0.602c-0.125-0.346-0.252-0.693-0.377-1.039c-0.666,1.396-1.354-2.059-2.049,0.149
		c-0.209-0.437-0.383-0.795-0.594-1.237c-0.168,0.357-0.293,0.621-0.443,0.938c-0.156-0.621-0.289-1.153-0.422-1.686
		c0-0.357,0-0.714,0-1.07c0.748-0.331,1.678-1.196,2.209-0.896c1.918,1.084,3.887,0.905,5.838,0.805
		c0.709-0.038,1.365-0.965,2.098-1.301c0.625-0.287,1.438-0.658,1.971-0.377c1.105,0.586,1.92,0.512,2.633-0.729
		c2.875,0,5.75,0,8.623,0c0.443,0.221,0.879,0.604,1.33,0.637c1.652,0.121,3.316,0.02,4.961,0.203
		c1.607,0.184,3.215,0.511,4.789,0.961c1.471,0.418,3.023,0.793,4.309,1.718c1.156,0.833,1.996,2.386,2.977,3.62
		C50.267,28.392,50.267,29.223,50.267,30.057z"/>
</g>
</svg>
