<?xml version="1.0" encoding="utf-8"?>
<!-- Generator: Adobe Illustrator 16.0.0, SVG Export Plug-In . SVG Version: 6.00 Build 0)  -->
<!DOCTYPE svg PUBLIC "-//W3C//DTD SVG 1.1//EN" "http://www.w3.org/Graphics/SVG/1.1/DTD/svg11.dtd">
<svg version="1.1" xmlns="http://www.w3.org/2000/svg" xmlns:xlink="http://www.w3.org/1999/xlink" x="0px" y="0px"
	 width="52.667px" height="51.952px" viewBox="0 0 52.667 51.952" enable-background="new 0 0 52.667 51.952" xml:space="preserve">
<g id="Layer_7">
</g>
<g id="Lions">
</g>
<g id="Generic">
</g>
<g id="Layer_3">
</g>
<g id="Layer_4">
</g>
<g id="Layer_5">
</g>
<g id="drops">
	<g>
		<path fill-rule="evenodd" clip-rule="evenodd" fill="#FFFFFF" d="M26.31,47.952c-12.476,0-22.626-10.082-22.626-22.476
			S13.834,3,26.31,3c12.478,0,22.628,10.083,22.628,22.477S38.787,47.952,26.31,47.952z"/>
		<path fill="#F7941E" d="M26.31,5c11.374,0,20.628,9.186,20.628,20.477c0,11.29-9.254,20.476-20.628,20.476
			c-11.373,0-20.626-9.186-20.626-20.476C5.684,14.186,14.937,5,26.31,5 M26.31,1C12.709,1,1.684,11.96,1.684,25.477
			S12.709,49.952,26.31,49.952s24.628-10.959,24.628-24.476S39.91,1,26.31,1L26.31,1z"/>
	</g>
	<path fill-rule="evenodd" clip-rule="evenodd" fill="#F7941E" d="M41.246,43.479c-0.318-0.081-0.637-0.161-1.045-0.267
		c0.383-0.439,0.756-0.828,1.074-1.246c0.193-0.25,0.395-0.537,0.443-0.821c0.281-1.73,0.535-3.463,0.764-5.198
		c0.053-0.404-0.035-0.82-0.121-1.233c0.098,1.267-0.338,2.413-1.094,3.479c-0.459,0.648-0.482,1.34-0.43,2.046
		c0.033,0.4-0.076,0.714-0.496,0.927c-0.318,0.16-0.371,0.389-0.314,0.706c0.209,1.191-0.08,1.087-1.105,0.916
		c-0.219-0.035-0.43-0.163-0.605-0.291c-0.463-0.335-0.451-0.424-0.002-0.765c0.047-0.035,0.1-0.073,0.129-0.121
		c0.574-0.869,1.328-1.66,1.467-2.715c0.053-0.393,0.229-0.799,0.445-1.154c0.816-1.347,0.84-2.655,0.178-4.029
		c-0.549-1.14-0.99-2.33-1.377-3.523c-0.416-1.279-1.283-2.303-2.127-3.35c-0.031-0.041-0.096-0.061-0.131-0.08
		c-1.092,0.895-2.441,1.197-3.797,1.396c-1.084,0.157-2.193,0.132-3.291,0.194c-0.537,0.031-1.076,0.103-1.609,0.1
		c-0.381-0.004-0.518,0.171-0.609,0.433c-0.297,0.847-0.68,1.684-0.869,2.548c-0.414,1.889-0.75,3.789-1.074,5.691
		c-0.109,0.641-0.059,1.299-0.145,1.943c-0.037,0.28-0.201,0.568-0.371,0.82c-0.234,0.344-0.436,0.664-0.318,1.084
		c0.082,0.293-0.117,0.518-0.443,0.557c-0.379,0.042-0.766,0.02-1.146-0.002c-0.23-0.012-0.457-0.073-0.73-0.121
		c0.146-0.133,0.271-0.254,0.402-0.368c0.281-0.243,0.562-0.485,0.846-0.727c0.789-0.673,1.066-1.501,0.998-2.423
		c-0.08-1.084-0.211-2.164-0.26-3.25c-0.018-0.344,0.051-0.759,0.264-1.036c0.398-0.52,0.525-1.069,0.49-1.64
		c-0.057-0.885-0.195-1.766-0.297-2.647c-0.039-0.318-0.246-0.485-0.576-0.609c-0.439-0.167-0.879-0.358-1.258-0.608
		c-1.07-0.699-2.254-1.205-3.492-1.623c-0.828-0.279-1.531-0.691-2.115-1.271c-0.664-0.654-1.33-1.309-1.994-1.963
		c0.053-0.046,0.104-0.092,0.154-0.136c-0.064,0.027-0.127,0.058-0.193,0.085c-0.555,0.234-1.031,0.125-1.209-0.381
		c-0.18-0.514-0.289-1.064-0.303-1.605c-0.016-0.647-0.205-1.242-0.348-1.861c-0.26-1.126-0.988-1.945-1.83-2.73
		c-0.414-0.385-0.596-0.842-0.545-1.379c0.008-0.074-0.02-0.148-0.029-0.224c0.092-0.637,0.186-1.273,0.279-1.909
		c0.307-0.017,0.49,0.144,0.609,0.355c0.213,0.379,0.396,0.771,0.596,1.156c0.451,0.877,0.902,1.755,1.363,2.646
		c0.248-0.152,0.443-0.274,0.648-0.4c-0.098-0.802-0.17-1.605,0.166-2.398c0.1,0.563,0.158,1.127,0.23,1.691
		c0.082,0.646,0.086,0.632,0.846,0.641c0.264,0.004,0.395-0.07,0.451-0.286c0.131-0.484,0.262-0.968,0.391-1.45
		c0.041-0.152,0.082-0.305,0.121-0.457c0.037,0.003,0.074,0.006,0.111,0.009c0,0.742,0,1.483,0,2.229
		c0.084,0.016,0.158,0.027,0.229,0.042c0.07,0.016,0.139,0.034,0.213,0.052c0.025-0.033,0.051-0.058,0.066-0.086
		c0.031-0.062,0.059-0.123,0.084-0.186c0.502-1.254,1.166-2.414,2.393-3.266c0.027-0.018,0.037-0.053,0.055-0.081
		c0.049,0.005,0.1,0.009,0.15,0.015c0,0.271,0.047,0.553-0.008,0.817c-0.162,0.776-0.262,1.546-0.174,2.334
		c0.059,0.512-0.205,0.923-0.73,1.188c-0.145,0.072-0.281,0.156-0.434,0.21c-0.645,0.231-0.906,0.748-1.102,1.251
		c-0.078,0.197,0.172,0.488,0.277,0.735c0.074,0.173,0.143,0.351,0.242,0.513c0.295,0.475,0.566,0.965,0.916,1.408
		c0.383,0.489,0.957,0.731,1.654,0.745c0.885,0.017,1.715-0.187,2.482-0.583c0.699-0.361,1.375-0.758,2.057-1.143
		c0.619-0.351,1.281-0.527,2.006-0.445c1.09,0.123,2.137-0.052,3.174-0.383c0.615-0.194,1.238-0.391,1.873-0.507
		c2.639-0.479,5.301-0.771,7.98-0.733c1.912,0.025,3.418,0.729,4.461,2.135c0.275,0.371,0.592,0.719,0.838,1.104
		c0.18,0.277,0.297,0.591,0.406,0.898c0.062,0.184,0.055,0.387,0.078,0.58c-0.035,0.241-0.07,0.483-0.105,0.726
		c-0.279,0.782-0.732,1.478-1.332,2.112c-0.225,0.236-0.43,0.499-0.598,0.771c-0.355,0.578-0.609,1.176-0.361,1.838
		c0.021,0.058,0.039,0.17,0.01,0.188c-0.297,0.166-0.047,0.3,0.012,0.439c0.113,0.277,0.236,0.551,0.359,0.834
		c-0.111,0.027-0.137,0.037-0.16,0.037s-0.047-0.007-0.07-0.015c-0.365-0.14-0.406-0.116-0.4,0.245c0,0.17,0.002,0.337,0.006,0.535
		c-0.607-0.358-0.551-0.943-0.703-1.471c-0.133,0.075-0.223,0.125-0.312,0.176c-0.031-0.019-0.064-0.037-0.098-0.054
		c0.18-0.278,0.361-0.558,0.541-0.835c0.135-0.211,0.332-0.412,0.391-0.639c0.252-0.986,0.682-1.898,1.369-2.722
		c0.02-0.022,0.012-0.062,0.016-0.095c1.053-0.931,1.562-2.535,0.836-3.111c0.018,0.107,0.021,0.192,0.043,0.273
		c0.223,0.876-0.01,1.676-0.586,2.42c-0.105,0.137-0.193,0.283-0.289,0.423c-0.539,0.528-1.088,1.05-1.613,1.589
		c-0.332,0.336-0.645,0.691-0.926,1.061c-0.705,0.924-0.766,1.873-0.092,2.787c0.408,0.555,0.889,1.066,1.35,1.59
		c0.463,0.521,0.951,1.026,1.143,1.691c-0.027,0.197-0.057,0.396-0.086,0.594c-0.178,0.277-0.373,0.547-0.527,0.833
		c-0.928,1.725-1.424,3.501-0.904,5.374c0.072,0.264-0.027,0.415-0.248,0.559c-0.455,0.295-0.73,0.662-0.691,1.18
		c0.023,0.299-0.113,0.56-0.402,0.744C41.594,43.509,41.42,43.493,41.246,43.479z"/>
</g>
</svg>
