<?xml version="1.0" encoding="utf-8"?>
<!-- Generator: Adobe Illustrator 16.0.0, SVG Export Plug-In . SVG Version: 6.00 Build 0)  -->
<!DOCTYPE svg PUBLIC "-//W3C//DTD SVG 1.1//EN" "http://www.w3.org/Graphics/SVG/1.1/DTD/svg11.dtd">
<svg version="1.1" xmlns="http://www.w3.org/2000/svg" xmlns:xlink="http://www.w3.org/1999/xlink" x="0px" y="0px" width="54px"
	 height="52.165px" viewBox="0 0 54 52.165" enable-background="new 0 0 54 52.165" xml:space="preserve">
<g id="Layer_7">
</g>
<g id="Lions">
</g>
<g id="Generic">
</g>
<g id="Layer_3">
</g>
<g id="Layer_4">
</g>
<g id="Layer_5">
</g>
<g id="drops">
	<g>
		<path fill-rule="evenodd" clip-rule="evenodd" fill="#FFFFFF" d="M27.477,48.952c-12.476,0-22.626-10.082-22.626-22.476
			S15.001,4,27.477,4c12.478,0,22.628,10.083,22.628,22.477S39.954,48.952,27.477,48.952z"/>
		<path fill="#F7941E" d="M27.477,6c11.374,0,20.628,9.186,20.628,20.477c0,11.29-9.254,20.476-20.628,20.476
			c-11.373,0-20.626-9.186-20.626-20.476C6.851,15.186,16.104,6,27.477,6 M27.477,2C13.876,2,2.851,12.96,2.851,26.477
			s11.025,24.476,24.626,24.476s24.628-10.959,24.628-24.476S41.077,2,27.477,2L27.477,2z"/>
	</g>
	<path fill-rule="evenodd" clip-rule="evenodd" fill="#F7941E" d="M24.376,47.719c1.132,0.171,2.932-2.598,3.904-3.388
		c0.652-0.531,0.488-1.499,0.188-2.281c-0.518-1.352-0.975-2.766-1.66-3.986c-1.556-2.763-1.978-5.731-1.577-8.982
		c0.175-1.425,0.459-2.783,0.925-4.1c0.355-1.007-0.124-2.123-1.031-2.286c-1.324-0.237-2.632-0.361-3.982,0.057
		c-2.142,0.661-4.323,1.132-6.527,1.52c1.115-0.484,5.616-2.477,6.73-2.959c-0.019-0.082-0.262,0.083-0.281,0
		c-1.075,0.134-5.233,1.983-6.297,2.215c1.747-1.264,3.608-2.207,5.521-3.007c1.392-0.583,2.659-1.204,3.729-2.662
		c1.835-2.497,6.644-2.583,8.788-0.468c0.826,0.817,0.778,2.002,0.805,3.104c0.028,1.152-0.076,2.308-0.137,3.462
		c-0.025,0.463-0.074,0.931-0.386,1.271c-0.618,0.678-0.425,1.386,0.011,2.019c0.949,1.379,1.837,2.799,2.394,4.48
		c0.963,2.909,1.408,5.968,1.829,9.039c0.259,1.898,0.218,3.822,0.473,5.715c0.023,0.173,0.124,0.454-0.158,0.43
		c-0.476-0.038-0.467,0.371-0.469,0.723c-0.004,0.514,0.373,0.515,0.651,0.576 M31.556,44.011c-0.054,0.01-0.164-0.01-0.209,0.047
		c-0.441,0.56-0.997,0.885-1.56,1.226c-0.312,0.188-0.115,0.56,0.105,0.707c0.833,0.551,1.781,0.578,2.685,0.82
		c0.355,0.095,0.569-0.006,0.654-0.454c0.006-0.025,0.201-0.01,0.305,0.009c0.316,0.06,0.716,0.599,0.922,0.051
		c0.186-0.493-0.399-0.594-0.628-0.885c-0.149-0.192-0.316-0.365-0.478-0.544C32.851,44.43,32.232,44.182,31.556,44.011z"/>
</g>
</svg>
