<?xml version="1.0" encoding="utf-8"?>
<!-- Generator: Adobe Illustrator 16.0.0, SVG Export Plug-In . SVG Version: 6.00 Build 0)  -->
<!DOCTYPE svg PUBLIC "-//W3C//DTD SVG 1.1//EN" "http://www.w3.org/Graphics/SVG/1.1/DTD/svg11.dtd">
<svg version="1.1" xmlns="http://www.w3.org/2000/svg" xmlns:xlink="http://www.w3.org/1999/xlink" x="0px" y="0px"
	 width="54.333px" height="52.165px" viewBox="0 0 54.333 52.165" enable-background="new 0 0 54.333 52.165" xml:space="preserve">
<g id="Layer_7">
</g>
<g id="Lions">
</g>
<g id="Generic">
</g>
<g id="Layer_3">
</g>
<g id="Layer_4">
</g>
<g id="Layer_5">
</g>
<g id="drops">
	<g>
		<path fill-rule="evenodd" clip-rule="evenodd" fill="#FFFFFF" d="M27.337,48.165c-12.476,0-22.626-10.082-22.626-22.476
			S14.861,3.213,27.337,3.213c12.478,0,22.628,10.083,22.628,22.477S39.814,48.165,27.337,48.165z"/>
		<path fill="#F7941E" d="M27.337,5.213c11.374,0,20.628,9.186,20.628,20.477c0,11.29-9.254,20.476-20.628,20.476
			c-11.373,0-20.626-9.186-20.626-20.476C6.711,14.398,15.964,5.213,27.337,5.213 M27.337,1.213
			c-13.601,0-24.626,10.96-24.626,24.477s11.025,24.476,24.626,24.476s24.628-10.959,24.628-24.476S40.938,1.213,27.337,1.213
			L27.337,1.213z"/>
	</g>
	<g id="VtKf45.tif_2_">
		<g>
			<g>
				<path fill="#F7941E" d="M47.75,24.182c-0.66-2.741-2.295-4.602-4.99-5.504c-1.553-0.521-3.148-0.605-4.748-0.391
					c-1.908,0.258-3.803,0.607-5.703,0.915c-1.289,0.21-2.584,0.388-3.895,0.306c-1.385-0.084-2.627-0.592-3.746-1.404
					c-0.271-0.196-0.527-0.414-0.791-0.623c-0.574-0.459-1.148-0.92-1.672-1.34c0.07-0.334,0.242-0.699,0.205-1.041
					c-0.076-0.667-0.535-1.091-1.168-1.285c-0.596-0.186-1.121,0.014-1.547,0.441c-0.156,0.155-0.293,0.201-0.502,0.176
					c-0.857-0.107-1.705-0.053-2.521,0.246c-0.174,0.062-0.295,0.031-0.453-0.053c-0.344-0.186-0.699-0.36-1.07-0.479
					c-0.6-0.191-0.98,0.21-1.324,0.6c-0.33,0.371-0.34,0.807-0.1,1.23c0.117,0.207,0.279,0.388,0.365,0.504
					c-0.223,0.625-0.467,1.197-0.623,1.793c-0.152,0.583-0.059,1.18,0.1,1.762c0.281,1.021,0.715,1.941,1.621,2.57
					c0.1,0.068,0.164,0.209,0.207,0.329c0.156,0.456,0.477,0.729,0.92,0.882c0.537,0.185,1.084,0.244,1.641,0.095
					c0.178-0.047,0.295-0.009,0.389,0.144c0.688,1.125,1.201,2.301,1.188,3.662c-0.014,1.254,0.205,2.453,0.893,3.547
					c0.193,0.307,0.25,0.723,0.291,1.097c0.217,2.038,0.229,4.083,0.133,6.127c-0.02,0.389-0.271,0.624-0.559,0.829
					c-0.287,0.204-0.529,0.438-0.639,0.787c-0.229,0.734,0.229,1.424,0.99,1.486c0.066,0.004,0.137,0.012,0.193,0.039
					c1.025,0.496,1.887,0.285,2.59-0.609c0.693-0.887,1.031-1.895,1.17-3.009c0.189-1.531,0.451-3.054,0.682-4.578
					c0.01-0.062,0.039-0.123,0.08-0.262c0.139,0.278,0.266,0.49,0.354,0.716c0.557,1.408,1.08,2.828,1.381,4.316
					c0.088,0.436,0.102,0.853-0.174,1.268c-0.279,0.426-0.141,0.826,0.289,1.111c0.117,0.08,0.236,0.162,0.357,0.24
					c0.279,0.187,0.57,0.307,0.92,0.201c0.113-0.035,0.252-0.022,0.371,0.004c0.588,0.126,1.023-0.051,1.328-0.59
					c0.363-0.645,0.688-1.301,0.818-2.04c0.086-0.474,0.043-0.933-0.23-1.325c-0.334-0.475-0.52-0.98-0.576-1.562
					c-0.102-1.051-0.248-2.096-0.375-3.141c-0.006-0.047-0.002-0.094-0.002-0.188c0.393,0.069,0.771,0.137,1.152,0.204
					c1.016,0.176,2.041,0.311,3.043-0.029c0.492-0.168,0.982-0.396,1.41-0.689c0.844-0.581,1.645-1.227,2.48-1.855
					c0.092,0.229,0.189,0.484,0.295,0.736c0.389,0.938,0.812,1.862,1.154,2.816c0.17,0.469,0.248,0.99,0.262,1.489
					c0.023,0.911-0.041,1.823-0.049,2.735c-0.006,0.449-0.229,0.804-0.426,1.174c-0.176,0.332-0.246,0.686-0.086,1.023
					c0.104,0.22,0.309,0.393,0.465,0.588c0.061,0.08,0.113,0.166,0.17,0.249c0.176,0.257,0.301,0.581,0.537,0.757
					c0.389,0.289,0.795,0.59,1.328,0.607c1.068,0.035,1.799-0.499,2.244-1.407c0.221-0.444,0.359-0.956,0.41-1.45
					c0.098-0.963,0.102-1.935,0.156-2.902c0.041-0.737-0.133-1.428-0.428-2.092c-0.146-0.328-0.195-0.658-0.18-1.026
					c0.035-0.813,0.18-1.591,0.471-2.353c0.449-1.162,0.865-2.336,1.297-3.502c0.029-0.08,0.066-0.156,0.143-0.227
					c-0.039,0.554-0.084,1.107-0.117,1.66c-0.104,1.59-0.244,3.178-0.285,4.77c-0.029,1.071,0.057,2.15,0.402,3.183
					c0.061,0.18,0.137,0.359,0.232,0.522c0.303,0.512,0.76,0.718,1.254,0.585c0.451-0.122,0.766-0.536,0.758-1.099
					c-0.008-0.418-0.018-0.863-0.16-1.246c-0.342-0.908-0.301-1.823-0.219-2.752c0.137-1.53,0.266-3.06,0.4-4.588
					c0.006-0.085,0.033-0.168,0.049-0.252c0-0.768,0-1.537,0-2.305C47.904,25.064,47.854,24.617,47.75,24.182z M47.162,25.338
					c0.006,0.377,0.004,0.756,0.004,1.122c-0.242,0.049-0.463,0.093-0.705,0.142c-0.035-0.321-0.055-0.619-0.105-0.909
					c-0.039-0.226,0.141-0.257,0.26-0.319c0.143-0.077,0.312-0.105,0.473-0.145C47.105,25.227,47.162,25.299,47.162,25.338z
					 M33.609,19.757c0.008-0.001,0.016,0.008,0.057,0.027c0.123,0.919-0.049,1.828-0.252,2.741
					c-0.129-0.727-0.234-1.457-0.295-2.189C33.074,19.824,33.098,19.82,33.609,19.757z M28.678,20.322
					c0.023,0.473,0.047,0.917,0.07,1.361c-0.018,0.004-0.033,0.006-0.051,0.01c-0.152-0.468-0.303-0.936-0.465-1.428
					C28.381,20.284,28.527,20.303,28.678,20.322z M30.01,37.316c0.434,0.533,0.234,1.107,0.02,1.68
					c-0.463-0.311-0.705-0.26-0.857,0.244c-0.059,0.196-0.203,0.365-0.309,0.549c-0.078,0.135-0.154,0.271-0.24,0.426
					c-0.521,0.084-0.617,0.054-1.055-0.367c0.355-0.412,0.416-0.916,0.34-1.429c-0.068-0.472-0.158-0.948-0.303-1.401
					c-0.402-1.265-0.84-2.52-1.264-3.783c0.166,0.04,0.352,0.088,0.537,0.13c0.498,0.117,0.99,0.136,1.439-0.16
					c0.076-0.05,0.117-0.155,0.174-0.234c-0.084-0.028-0.172-0.089-0.252-0.081c-0.848,0.084-1.6-0.218-2.365-0.551
					c0.053-0.035,0.09-0.068,0.131-0.084c0.922-0.344,1.881-0.332,2.84-0.281c0.062,0.004,0.16,0.129,0.17,0.207
					c0.127,1.016,0.234,2.036,0.365,3.051C29.477,35.957,29.506,36.697,30.01,37.316z M39.941,39.679
					c-0.059-0.007-0.154-0.085-0.152-0.128c0.004-0.163-0.002-0.35,0.074-0.482c0.293-0.519,0.479-1.051,0.48-1.66
					c0.002-0.746,0.066-1.49,0.105-2.295c0.309,0.441,0.551,0.841,0.525,1.371c-0.043,0.868,0.061,1.747-0.178,2.602
					C40.682,39.494,40.348,39.728,39.941,39.679z M44.291,23.268c0.223,0.209,0.475,0.404,0.639,0.652
					c0.506,0.765,0.768,1.566,0.379,2.492c-0.363,0.865-0.656,1.758-0.98,2.639c-0.252,0.688-0.508,1.374-0.76,2.062
					c-0.031-0.076-0.037-0.145-0.018-0.205c0.176-0.555,0.359-1.107,0.535-1.662c0.105-0.336,0.221-0.672,0.301-1.016
					c0.051-0.23-0.043-0.423-0.303-0.471c-0.264-0.045-0.371,0.121-0.445,0.342c-0.146,0.436-0.285,0.873-0.467,1.293
					c-0.533,1.238-0.543,2.526-0.32,3.813c0.107,0.606,0.396,1.178,0.588,1.769c0.111,0.345,0.27,0.696,0.277,1.047
					c0.021,1.016-0.021,2.032-0.037,3.039c-0.393,0.046-0.453,0.088-0.584,0.406c-0.055,0.133-0.111,0.269-0.135,0.408
					c-0.084,0.488-0.316,0.867-0.721,1.164c-0.141,0.104-0.207,0.312-0.346,0.537c-0.332,0.05-0.943-0.269-1.189-0.701
					c0.121-0.102,0.236-0.219,0.371-0.308c0.479-0.313,0.668-0.789,0.713-1.319c0.064-0.772,0.072-1.551,0.123-2.326
					c0.037-0.572-0.141-1.071-0.445-1.543c-0.416-0.646-0.811-1.305-1.227-1.947c-0.156-0.242-0.201-0.446-0.012-0.699
					c0.172-0.229,0.301-0.49,0.438-0.744c0.408-0.752,0.902-1.424,1.66-1.867c0.107-0.062,0.207-0.143,0.289-0.234
					c0.066-0.072,0.104-0.171,0.152-0.258c-0.098-0.039-0.199-0.117-0.297-0.114c-0.697,0.024-1.248,0.364-1.666,0.896
					c-0.312,0.398-0.564,0.843-0.846,1.267c-0.086,0.131-0.18,0.257-0.295,0.421c-0.059-0.139-0.096-0.223-0.131-0.311
					c-0.301-0.755-0.602-1.512-0.904-2.268c-0.191-0.482-0.432-0.544-0.818-0.212c-0.215,0.183-0.43,0.367-0.637,0.546
					c-0.047-0.25-0.037-0.498-0.139-0.688c-0.387-0.725-0.535-1.512-0.688-2.302c-0.242-1.253-0.52-2.495-0.543-3.781
					c-0.01-0.465-0.105-0.93-0.176-1.393c-0.014-0.097-0.092-0.181-0.143-0.271c-0.025,0.004-0.053,0.01-0.08,0.016
					c-0.035,0.137-0.094,0.27-0.105,0.407c-0.051,0.582-0.15,1.171-0.111,1.749c0.059,0.926,0.203,1.846,0.336,2.766
					c0.178,1.247,0.475,2.463,1.023,3.605c0.043,0.088,0.129,0.155,0.217,0.258c-0.537,0.395-1.084,0.798-1.633,1.199
					c-0.812,0.596-1.736,0.801-2.721,0.725c-0.562-0.045-1.123-0.141-1.676-0.252c-1.129-0.229-2.254-0.5-3.418-0.306
					c-0.488,0.082-0.977,0.183-1.449,0.332c-0.797,0.251-1.059,0.925-1.178,1.662c-0.262,1.638-0.521,3.273-0.746,4.916
					c-0.111,0.825-0.344,1.586-0.865,2.239c-0.521-0.109-0.803,0.072-0.945,0.571c-0.021,0.076-0.164,0.19-0.219,0.174
					c-0.283-0.081-0.555-0.198-0.832-0.304c-0.014-0.042-0.029-0.084-0.045-0.125c0.117-0.085,0.254-0.153,0.34-0.262
					c0.061-0.076,0.055-0.209,0.076-0.314c-0.107,0.01-0.25-0.021-0.32,0.037c-0.193,0.162-0.354,0.359-0.539,0.555
					c-0.025-0.065-0.055-0.117-0.062-0.17c-0.033-0.283,0.152-0.439,0.355-0.578c0.643-0.433,0.926-1.033,0.916-1.809
					c-0.02-1.393-0.004-2.783-0.004-4.15c0.137-0.108,0.281-0.191,0.383-0.31c0.68-0.783,1.332-1.591,1.789-2.532
					c0.195-0.404,0.381-0.824,0.307-1.293c-0.018-0.109-0.104-0.207-0.16-0.311c-0.082,0.069-0.197,0.123-0.248,0.211
					c-0.229,0.399-0.418,0.821-0.664,1.21c-0.236,0.378-0.521,0.728-0.789,1.088c-0.156,0.212-0.334,0.409-0.48,0.628
					c-0.078,0.112-0.109,0.254-0.188,0.444c-0.062-0.443-0.102-0.823-0.172-1.196c-0.07-0.371-0.174-0.738-0.277-1.162
					c0.658-1.012,1.143-2.188,1.514-3.409c0.086-0.284,0.07-0.603,0.066-0.905c-0.004-0.082-0.127-0.204-0.217-0.229
					c-0.068-0.018-0.203,0.073-0.248,0.149c-0.082,0.146-0.131,0.315-0.184,0.479c-0.375,1.175-0.748,2.351-1.123,3.526
					c-0.01,0.032-0.037,0.06-0.094,0.141c-0.115-0.312-0.225-0.572-0.309-0.844c-0.256-0.828-0.246-1.682-0.246-2.539
					c0-0.17,0.053-0.271,0.174-0.389c0.381-0.377,0.75-0.766,1.102-1.171c0.076-0.087,0.055-0.259,0.078-0.392
					c-0.141-0.009-0.299-0.061-0.422-0.018c-0.445,0.16-0.865,0.377-1.18,0.777c-0.037-0.113-0.061-0.197-0.088-0.278
					c-0.273-0.759-0.57-1.507-1.068-2.153c-0.271-0.352-0.602-0.502-1.059-0.375c-0.254,0.068-0.533,0.074-0.799,0.058
					c-0.615-0.041-0.889-0.265-0.953-0.731c0.229-0.021,0.457-0.057,0.686-0.061c0.211-0.005,0.424,0.029,0.637,0.039
					c0.455,0.024,0.908,0.057,1.365,0.059c0.064,0,0.131-0.151,0.199-0.232c-0.1-0.044-0.197-0.117-0.301-0.127
					c-0.387-0.039-0.779-0.041-1.162-0.096c-0.088-0.012-0.188-0.173-0.211-0.279c-0.016-0.068,0.082-0.188,0.158-0.246
					c0.193-0.143,0.408-0.254,0.596-0.398c0.062-0.049,0.129-0.185,0.104-0.238c-0.037-0.076-0.15-0.137-0.242-0.161
					c-0.098-0.024-0.207,0.001-0.314,0.001c-0.344,0.004-0.686,0.007-1.029,0.01c-0.086,0-0.176-0.017-0.258,0
					c-0.086,0.018-0.164,0.068-0.248,0.105c0.039,0.082,0.061,0.184,0.123,0.243c0.123,0.119,0.258,0.239,0.408,0.313
					c0.264,0.129,0.344,0.309,0.219,0.639c-0.318,0-0.668,0.046-0.998-0.017c-0.23-0.042-0.561-0.124-0.473-0.52
					c0.008-0.033-0.072-0.124-0.096-0.118c-0.395,0.082-0.369-0.282-0.547-0.447c0.223-0.021,0.41-0.023,0.588-0.066
					c0.049-0.013,0.066-0.148,0.098-0.226c-0.076-0.011-0.172-0.057-0.221-0.028c-0.193,0.125-0.338,0.062-0.438-0.104
					c-0.166-0.273-0.373-0.547-0.449-0.85c-0.271-1.045-0.016-1.989,0.658-2.827c0.213-0.267,0.197-0.471-0.053-0.699
					c-0.094-0.085-0.193-0.16-0.279-0.25c-0.375-0.394-0.352-0.632,0.109-0.908c0.105-0.062,0.283-0.079,0.396-0.036
					c0.275,0.107,0.559,0.23,0.787,0.408c0.291,0.223,0.562,0.236,0.883,0.106c0.797-0.323,1.631-0.358,2.465-0.241
					c0.406,0.055,0.697,0.059,0.945-0.35c0.246-0.412,0.795-0.438,1.16-0.129c0.402,0.342,0.4,0.633-0.008,1.066
					c-0.344,0.369-0.322,0.578,0.094,0.854c0.088,0.059,0.182,0.107,0.266,0.17c0.77,0.564,1.537,1.135,2.264,1.672
					c-0.158,0.457-0.324,0.828-0.416,1.216c-0.357,1.537-0.65,3.093-1.309,4.544c-0.041,0.096-0.072,0.205-0.07,0.305
					c0.002,0.107,0.018,0.241,0.084,0.305c0.041,0.042,0.213,0.012,0.279-0.043c0.203-0.17,0.42-0.342,0.566-0.559
					c0.395-0.582,0.504-1.271,0.676-1.939c0.281-1.087,0.604-2.162,0.91-3.254c0.414,0.223,0.775,0.415,1.135,0.608
					c-0.039,0.332-0.076,0.656-0.115,0.979c-0.182,1.486-0.248,2.967,0.322,4.398c0.049,0.121,0.123,0.236,0.215,0.414
					c0.266-0.473,0.18-0.906,0.217-1.325c0.053,0.395,0.123,0.79,0.137,1.188c0.033,1.103,0.01,2.207,0.076,3.306
					c0.035,0.558,0.174,1.116,0.336,1.653c0.168,0.551,0.541,0.775,1.072,0.766c0.006-0.018,0.02-0.038,0.016-0.053
					c-0.027-0.102-0.053-0.203-0.088-0.303c-0.506-1.48-0.838-2.979-0.717-4.566c0.051-0.652-0.041-1.324-0.135-1.977
					c-0.055-0.379-0.236-0.742-0.375-1.107c-0.021-0.058-0.129-0.139-0.162-0.123c-0.064,0.025-0.127,0.105-0.148,0.176
					c-0.039,0.132-0.047,0.271-0.068,0.42c-0.184-1.213-0.23-2.41,0.078-3.604c0.232,0.062,0.484,0.116,0.73,0.192
					c0.07,0.021,0.145,0.094,0.174,0.162c0.486,1.076,0.926,2.168,1.176,3.326c0.182,0.836,0.432,1.648,0.811,2.418
					c0.066,0.14,0.186,0.254,0.281,0.381c0.045-0.018,0.09-0.033,0.135-0.051c-0.016-0.326-0.012-0.653-0.055-0.977
					c-0.174-1.273-0.383-2.539-0.098-3.831c0.088-0.397,0.014-0.831,0.014-1.231c0.215-0.106,0.293-0.01,0.387,0.143
					c0.328,0.534,0.371,1.13,0.352,1.723c-0.047,1.383,0.146,2.736,0.486,4.067c0.084,0.326,0.26,0.632,0.422,0.934
					c0.033,0.063,0.18,0.069,0.275,0.101c0.025-0.094,0.08-0.191,0.072-0.281c-0.023-0.209-0.078-0.415-0.121-0.621
					c-0.271-1.329-0.461-2.67-0.363-4.027c0.053-0.745,0.154-1.475-0.373-2.143c0.514-0.07,0.973-0.135,1.451-0.201
					c0.012,0.998,0.205,1.924,0.479,2.834c0.223,0.744,0.439,1.487,0.652,2.23c0.291,1.012,0.584,2.021,0.865,3.036
					c0.139,0.497,0.242,1.005,0.383,1.501c0.023,0.088,0.141,0.19,0.229,0.207c0.062,0.011,0.17-0.106,0.217-0.189
					c0.275-0.477,0.23-0.99,0.08-1.479c-0.254-0.822-0.559-1.631-0.838-2.445c-0.229-0.675-0.422-1.363-0.312-2.084
					c0.201-1.342,0.426-2.68,0.646-4.054c0.229-0.042,0.527-0.093,0.729-0.128c0.35,0.689,0.668,1.33,0.994,1.963
					c0.168,0.324,0.359,0.635,0.535,0.954c0.359,0.65,0.549,1.339,0.545,2.091c-0.004,0.437,0.035,0.883,0.121,1.312
					c0.1,0.484,0.266,0.957,0.418,1.43c0.021,0.069,0.141,0.156,0.205,0.15c0.062-0.005,0.156-0.115,0.164-0.19
					c0.043-0.331,0.109-0.669,0.076-0.995c-0.078-0.792-0.189-1.58-0.316-2.364c-0.141-0.871-0.354-1.716-0.822-2.492
					c-0.379-0.626-0.646-1.317-0.996-2.048c1.074-0.105,2.098-0.207,3.145-0.309c0.021,0.342,0.064,0.611,0.045,0.875
					c-0.107,1.492-0.225,2.983-0.35,4.475c-0.072,0.871-0.178,1.754,0.064,2.605c0.227,0.787,0.334,1.572,0.258,2.385
					c-0.023,0.244-0.102,0.485-0.129,0.732c-0.014,0.117,0.031,0.24,0.051,0.363c0.107-0.05,0.24-0.074,0.312-0.153
					c0.115-0.124,0.211-0.276,0.273-0.433c0.252-0.639,0.303-1.307,0.201-1.98c-0.16-1.053-0.391-2.095-0.314-3.17
					c0.047-0.664,0.078-1.329,0.115-1.993c0.055,0.036,0.062,0.073,0.066,0.11c0.059,0.91,0.109,1.82,0.176,2.729
					c0.027,0.373,0.082,0.743,0.141,1.112c0.016,0.093,0.1,0.174,0.15,0.26c0.09-0.059,0.205-0.102,0.264-0.182
					c0.084-0.113,0.172-0.252,0.178-0.385c0.025-0.584,0.066-1.173,0.02-1.754c-0.104-1.27-0.275-2.534-0.385-3.805
					c-0.045-0.56-0.008-1.123-0.008-1.752c0.656,0.129,1.232,0.244,1.787,0.354c-0.055,0.639-0.117,1.219-0.146,1.801
					c-0.072,1.517,0.186,2.979,0.77,4.382c0.207,0.496,0.582,0.854,1.031,1.129c0.094,0.059,0.268-0.008,0.406-0.018
					c-0.025-0.137-0.018-0.291-0.08-0.406c-0.076-0.139-0.227-0.232-0.322-0.364c-0.689-0.925-0.967-1.995-1.039-3.118
					c-0.045-0.718,0-1.439-0.004-2.16c-0.004-0.331-0.033-0.66-0.049-1.009c1.416,0.513,2.469,1.425,3.188,2.59
					c-0.395,0.364-0.75,0.693-1.107,1.022c-0.111-0.127-0.365-0.371-0.631-0.601c-0.111-0.095-0.268-0.228-0.396-0.052
					C44,23.076,44.18,23.162,44.291,23.268z M45.666,24.57c-0.023-0.092-0.125-0.264-0.084-0.377
					c0.166-0.435,0.408-0.828,0.873-1.006c0.053-0.021,0.186,0.037,0.207,0.088c0.109,0.269,0.195,0.547,0.264,0.744
					C46.482,24.213,46.082,24.389,45.666,24.57z M46.516,35.182c-0.129-0.003-0.357-0.084-0.369-0.156
					c-0.072-0.459-0.094-0.924-0.131-1.391c0.246,0,0.445,0,0.703,0c0,0.314-0.006,0.6,0.002,0.885
					c0.004,0.152,0.064,0.309,0.033,0.45C46.738,35.059,46.598,35.184,46.516,35.182z M46.768,32.589
					c-0.133-0.058-0.24-0.104-0.395-0.175c0.148-0.111,0.256-0.193,0.422-0.317C46.783,32.297,46.775,32.429,46.768,32.589z
					 M46.912,31.021c-0.033,0.291-0.158,0.393-0.42,0.369c-0.277-0.023-0.365-0.129-0.355-0.518
					c0.027-0.301,0.076-0.691,0.094-1.083c0.012-0.278,0.197-0.302,0.391-0.298c0.248,0.007,0.418,0.181,0.402,0.387
					C46.992,30.26,46.959,30.641,46.912,31.021z M47.129,28.69c-0.299-0.021-0.549-0.036-0.801-0.054
					c0.016-0.234,0.027-0.445,0.041-0.653c0.031-0.491,0.277-0.713,0.826-0.714C47.176,27.734,47.152,28.199,47.129,28.69z"/>
			</g>
			<path fill-rule="evenodd" clip-rule="evenodd" fill="#F7941E" d="M27.297,19.335c-0.041-0.021-0.049-0.028-0.059-0.027
				c-0.51,0.065-0.535,0.067-0.49,0.58c0.062,0.733,0.166,1.461,0.297,2.189C27.246,21.164,27.418,20.255,27.297,19.335z"/>
			<path fill-rule="evenodd" clip-rule="evenodd" fill="#F7941E" d="M40.348,33.188c-0.258,0-0.457,0-0.701,0
				c0.037,0.465,0.059,0.931,0.131,1.388c0.012,0.075,0.238,0.155,0.369,0.157c0.082,0.002,0.223-0.123,0.24-0.211
				c0.029-0.141-0.031-0.3-0.035-0.45C40.344,33.786,40.348,33.5,40.348,33.188z"/>
			<path fill-rule="evenodd" clip-rule="evenodd" fill="#F7941E" d="M40.426,31.647c-0.164,0.123-0.273,0.206-0.424,0.318
				c0.156,0.068,0.264,0.117,0.395,0.175C40.406,31.979,40.414,31.848,40.426,31.647z"/>
		</g>
	</g>
</g>
</svg>
